<svg xmlns="http://www.w3.org/2000/svg" xmlns:xlink="http://www.w3.org/1999/xlink" width="250" zoomAndPan="magnify" viewBox="0 0 187.5 187.499992" height="250" preserveAspectRatio="xMidYMid meet" version="1.0"><defs><clipPath id="ee604c3fab"><path d="M 152 64 L 187 64 L 187 124 L 152 124 Z M 152 64 " clip-rule="nonzero"/></clipPath><clipPath id="1dc69f8f40"><path d="M 47 47 L 140.824219 47 L 140.824219 140.691406 L 47 140.691406 Z M 47 47 " clip-rule="nonzero"/></clipPath></defs><g clip-path="url(#ee604c3fab)"><path fill="#ffffff" d="M 156.214844 123.4375 C 157.171875 123.4375 158.132812 123.074219 158.863281 122.34375 L 187.328125 93.9375 L 158.863281 65.53125 C 157.398438 64.070312 155.03125 64.070312 153.566406 65.53125 C 152.105469 66.988281 152.105469 69.351562 153.566406 70.8125 L 176.742188 93.9375 L 153.566406 117.0625 C 152.105469 118.519531 152.105469 120.886719 153.566406 122.34375 C 154.296875 123.074219 155.257812 123.4375 156.214844 123.4375 " fill-opacity="1" fill-rule="nonzero"/></g><g clip-path="url(#1dc69f8f40)"><path fill="#ffffff" d="M 127.691406 94.429688 C 127.730469 94.402344 127.769531 94.382812 127.8125 94.363281 L 127.695312 94.425781 Z M 106.839844 95.769531 C 106.378906 95.640625 105.941406 95.699219 105.523438 95.941406 C 105.300781 96.101562 105.0625 96.238281 104.8125 96.351562 C 104.574219 96.4375 104.332031 96.503906 104.082031 96.550781 C 103.859375 96.566406 103.640625 96.566406 103.417969 96.550781 C 103.164062 96.503906 102.917969 96.433594 102.675781 96.34375 C 102.472656 96.25 102.28125 96.140625 102.09375 96.015625 C 101.898438 95.90625 101.6875 95.835938 101.464844 95.804688 C 101.242188 95.777344 101.019531 95.789062 100.800781 95.847656 C 100.582031 95.90625 100.382812 96 100.203125 96.136719 C 100.023438 96.273438 99.875 96.4375 99.757812 96.628906 C 99.519531 97.046875 99.464844 97.484375 99.585938 97.945312 C 99.722656 98.382812 99.980469 98.726562 100.371094 98.96875 C 100.878906 99.308594 101.429688 99.570312 102.019531 99.742188 C 102.605469 99.917969 103.207031 100.003906 103.824219 99.996094 C 104.4375 99.988281 105.035156 99.890625 105.621094 99.703125 C 106.203125 99.511719 106.75 99.242188 107.25 98.886719 C 107.625 98.632812 107.886719 98.292969 108.035156 97.867188 C 108.09375 97.648438 108.109375 97.425781 108.082031 97.199219 C 108.054688 96.976562 107.984375 96.765625 107.875 96.566406 C 107.761719 96.371094 107.617188 96.203125 107.4375 96.0625 C 107.257812 95.925781 107.058594 95.824219 106.839844 95.765625 Z M 89.636719 96.019531 C 89.453125 96.144531 89.257812 96.253906 89.054688 96.347656 C 88.816406 96.4375 88.566406 96.507812 88.316406 96.554688 C 88.09375 96.570312 87.871094 96.570312 87.648438 96.554688 C 87.398438 96.507812 87.15625 96.441406 86.921875 96.355469 C 86.667969 96.242188 86.429688 96.105469 86.207031 95.945312 C 85.792969 95.703125 85.351562 95.644531 84.890625 95.773438 C 84.671875 95.832031 84.472656 95.933594 84.292969 96.070312 C 84.117188 96.210938 83.96875 96.378906 83.859375 96.574219 C 83.746094 96.773438 83.675781 96.984375 83.648438 97.210938 C 83.621094 97.433594 83.636719 97.65625 83.699219 97.875 C 83.84375 98.300781 84.105469 98.644531 84.480469 98.894531 C 84.984375 99.25 85.527344 99.519531 86.109375 99.710938 C 86.695312 99.898438 87.292969 99.996094 87.910156 100.003906 C 88.523438 100.011719 89.125 99.925781 89.714844 99.753906 C 90.300781 99.578125 90.851562 99.316406 91.359375 98.976562 C 91.75 98.734375 92.011719 98.394531 92.144531 97.953125 C 92.269531 97.492188 92.210938 97.054688 91.972656 96.640625 C 91.859375 96.445312 91.710938 96.28125 91.527344 96.144531 C 91.347656 96.007812 91.148438 95.910156 90.929688 95.855469 C 90.710938 95.796875 90.492188 95.78125 90.265625 95.8125 C 90.042969 95.839844 89.832031 95.910156 89.636719 96.019531 Z M 136.359375 103.199219 C 137.570312 107.695312 136.074219 111.359375 132.703125 114.320312 C 131.652344 115.085938 130.546875 115.761719 129.382812 116.34375 C 129.21875 116.445312 128.984375 116.640625 128.992188 116.785156 C 129.03125 117.554688 128.992188 118.316406 128.875 119.078125 C 128.761719 119.839844 128.574219 120.582031 128.3125 121.304688 C 128.050781 122.027344 127.71875 122.71875 127.320312 123.378906 C 126.921875 124.035156 126.464844 124.648438 125.941406 125.214844 C 125.421875 125.785156 124.851562 126.292969 124.230469 126.75 C 123.609375 127.203125 122.953125 127.59375 122.253906 127.917969 C 121.554688 128.242188 120.832031 128.492188 120.085938 128.671875 C 119.335938 128.855469 118.578125 128.960938 117.808594 128.992188 C 117.453125 128.996094 117.195312 129.15625 117.035156 129.472656 C 116.199219 130.808594 115.132812 131.925781 113.839844 132.828125 C 112.546875 133.730469 111.128906 134.34375 109.585938 134.664062 C 107.976562 135.003906 106.410156 134.855469 104.894531 134.226562 C 104.734375 134.160156 104.566406 134.125 104.371094 134.0625 C 103.914062 135.046875 103.328125 135.949219 102.613281 136.765625 C 101.898438 137.585938 101.085938 138.285156 100.167969 138.871094 C 99.253906 139.457031 98.277344 139.902344 97.234375 140.207031 C 96.191406 140.511719 95.128906 140.664062 94.042969 140.667969 C 92.957031 140.667969 91.890625 140.519531 90.847656 140.214844 C 89.804688 139.914062 88.824219 139.472656 87.910156 138.890625 C 86.992188 138.304688 86.175781 137.609375 85.457031 136.792969 C 84.742188 135.976562 84.152344 135.078125 83.691406 134.09375 C 83.546875 134.117188 83.40625 134.148438 83.265625 134.195312 C 79.8125 135.546875 76.742188 134.648438 73.890625 132.574219 C 72.722656 131.703125 71.757812 130.648438 70.992188 129.410156 C 70.828125 129.113281 70.578125 128.976562 70.242188 129 C 69.5 128.96875 68.769531 128.871094 68.042969 128.699219 C 67.320312 128.53125 66.621094 128.296875 65.941406 127.992188 C 65.265625 127.6875 64.621094 127.324219 64.011719 126.894531 C 63.40625 126.46875 62.84375 125.988281 62.324219 125.453125 C 61.808594 124.917969 61.347656 124.339844 60.945312 123.71875 C 60.539062 123.097656 60.195312 122.441406 59.914062 121.753906 C 59.636719 121.0625 59.421875 120.355469 59.277344 119.625 C 59.132812 118.898438 59.058594 118.160156 59.058594 117.417969 C 59.105469 117.121094 59.046875 116.84375 58.878906 116.589844 C 58.710938 116.335938 58.480469 116.175781 58.183594 116.105469 C 57.144531 115.667969 56.1875 115.082031 55.320312 114.359375 C 54.453125 113.632812 53.710938 112.792969 53.09375 111.847656 C 52.476562 110.898438 52.015625 109.878906 51.703125 108.792969 C 51.390625 107.703125 51.25 106.59375 51.269531 105.464844 C 51.3125 104.785156 51.433594 104.117188 51.625 103.460938 C 51.703125 103.265625 51.714844 103.0625 51.65625 102.859375 C 51.597656 102.652344 51.484375 102.488281 51.3125 102.359375 C 50.332031 101.527344 49.511719 100.558594 48.863281 99.445312 C 48.214844 98.332031 47.769531 97.144531 47.527344 95.878906 C 47.378906 95.085938 47.324219 94.285156 47.363281 93.480469 C 47.402344 92.675781 47.535156 91.882812 47.761719 91.109375 C 47.988281 90.332031 48.300781 89.59375 48.699219 88.894531 C 49.097656 88.191406 49.574219 87.546875 50.125 86.957031 C 50.273438 86.832031 50.390625 86.6875 50.480469 86.515625 C 50.574219 86.347656 50.632812 86.167969 50.65625 85.976562 C 50.683594 85.785156 50.671875 85.597656 50.628906 85.410156 C 50.585938 85.222656 50.507812 85.050781 50.398438 84.890625 C 50.078125 84.203125 49.832031 83.492188 49.660156 82.753906 C 49.484375 82.015625 49.386719 81.265625 49.367188 80.507812 C 49.347656 79.75 49.402344 79 49.539062 78.253906 C 49.671875 77.507812 49.878906 76.78125 50.160156 76.078125 C 50.445312 75.375 50.792969 74.707031 51.214844 74.074219 C 51.632812 73.445312 52.113281 72.859375 52.652344 72.328125 C 53.1875 71.792969 53.777344 71.320312 54.414062 70.90625 C 55.046875 70.496094 55.71875 70.152344 56.425781 69.875 C 56.664062 69.820312 56.851562 69.6875 56.984375 69.480469 C 57.117188 69.269531 57.160156 69.046875 57.109375 68.804688 C 57.101562 68.195312 57.140625 67.589844 57.230469 66.988281 C 57.316406 66.386719 57.453125 65.792969 57.632812 65.210938 C 57.816406 64.632812 58.039062 64.066406 58.308594 63.523438 C 58.582031 62.976562 58.890625 62.457031 59.242188 61.960938 C 59.59375 61.464844 59.984375 60.996094 60.410156 60.5625 C 60.835938 60.128906 61.292969 59.726562 61.78125 59.363281 C 62.269531 59.003906 62.78125 58.679688 63.320312 58.398438 C 63.859375 58.113281 64.417969 57.875 64.996094 57.683594 C 66.597656 57.066406 68.242188 56.914062 69.929688 57.230469 C 70.320312 57.316406 70.4375 57.128906 70.601562 56.871094 C 71.4375 55.460938 72.523438 54.28125 73.859375 53.332031 C 75.195312 52.382812 76.667969 51.75 78.273438 51.425781 C 79.261719 51.210938 80.257812 51.171875 81.261719 51.300781 C 82.265625 51.433594 83.214844 51.730469 84.117188 52.191406 C 84.203125 52.253906 84.300781 52.296875 84.40625 52.320312 C 84.511719 52.34375 84.617188 52.34375 84.722656 52.320312 C 84.828125 52.296875 84.921875 52.25 85.007812 52.183594 C 85.09375 52.117188 85.160156 52.039062 85.210938 51.941406 C 86.03125 50.78125 87.042969 49.820312 88.242188 49.054688 C 89.441406 48.292969 90.742188 47.78125 92.140625 47.527344 C 93.171875 47.335938 94.210938 47.292969 95.253906 47.398438 C 96.296875 47.503906 97.308594 47.753906 98.28125 48.144531 C 99.253906 48.535156 100.152344 49.054688 100.980469 49.703125 C 101.804688 50.351562 102.523438 51.097656 103.136719 51.949219 C 103.378906 52.253906 103.589844 52.578125 103.835938 52.925781 C 103.945312 52.886719 104.046875 52.839844 104.148438 52.789062 C 104.78125 52.417969 105.441406 52.113281 106.132812 51.875 C 106.824219 51.636719 107.535156 51.464844 108.257812 51.367188 C 108.984375 51.269531 109.710938 51.242188 110.441406 51.285156 C 111.171875 51.332031 111.890625 51.449219 112.597656 51.636719 C 113.304688 51.824219 113.988281 52.078125 114.644531 52.398438 C 115.300781 52.722656 115.921875 53.105469 116.503906 53.550781 C 117.082031 53.996094 117.613281 54.496094 118.097656 55.042969 C 118.578125 55.59375 119.003906 56.1875 119.367188 56.820312 C 119.515625 57.058594 119.589844 57.3125 120.011719 57.238281 C 121.425781 57 122.824219 57.054688 124.214844 57.402344 C 125.605469 57.75 126.867188 58.367188 127.996094 59.246094 C 128.757812 59.769531 129.445312 60.375 130.058594 61.066406 C 130.671875 61.761719 131.191406 62.515625 131.621094 63.335938 C 132.050781 64.15625 132.371094 65.015625 132.589844 65.914062 C 132.804688 66.8125 132.910156 67.722656 132.90625 68.648438 C 132.933594 68.882812 132.917969 69.113281 132.859375 69.34375 C 132.574219 70.082031 132.890625 70.4375 133.507812 70.863281 C 134.367188 71.402344 135.136719 72.042969 135.824219 72.792969 C 136.507812 73.539062 137.078125 74.367188 137.535156 75.269531 C 137.996094 76.175781 138.324219 77.125 138.527344 78.117188 C 138.726562 79.113281 138.789062 80.113281 138.714844 81.125 C 138.601562 82.703125 138.152344 84.179688 137.363281 85.550781 C 137.261719 85.6875 137.226562 85.835938 137.246094 86 C 137.269531 86.167969 137.347656 86.300781 137.480469 86.402344 C 138.023438 86.933594 138.5 87.515625 138.917969 88.148438 C 139.335938 88.78125 139.683594 89.453125 139.957031 90.160156 C 140.234375 90.863281 140.433594 91.59375 140.554688 92.339844 C 140.675781 93.089844 140.71875 93.839844 140.679688 94.597656 C 140.640625 95.355469 140.523438 96.101562 140.328125 96.832031 C 140.132812 97.566406 139.863281 98.269531 139.519531 98.945312 C 139.171875 99.621094 138.761719 100.25 138.28125 100.839844 C 137.804688 101.425781 137.269531 101.957031 136.675781 102.433594 C 136.449219 102.640625 136.25 102.792969 136.359375 103.199219 Z M 136.730469 93.070312 C 136.613281 91.988281 136.277344 90.980469 135.71875 90.046875 C 135.164062 89.113281 134.441406 88.335938 133.546875 87.714844 L 132.078125 86.613281 C 132.46875 86.097656 132.820312 85.632812 133.171875 85.167969 C 133.363281 84.929688 133.539062 84.679688 133.699219 84.421875 C 133.859375 84.160156 134.007812 83.894531 134.136719 83.617188 C 134.265625 83.339844 134.378906 83.054688 134.472656 82.765625 C 134.570312 82.476562 134.644531 82.179688 134.707031 81.878906 C 134.765625 81.578125 134.808594 81.277344 134.832031 80.972656 C 134.859375 80.667969 134.863281 80.363281 134.851562 80.058594 C 134.839844 79.75 134.808594 79.449219 134.761719 79.144531 C 134.710938 78.84375 134.644531 78.546875 134.5625 78.253906 C 134.476562 77.957031 134.378906 77.671875 134.257812 77.386719 C 134.140625 77.105469 134.007812 76.832031 133.855469 76.566406 C 133.703125 76.300781 133.539062 76.042969 133.355469 75.796875 C 133.175781 75.550781 132.980469 75.316406 132.769531 75.09375 C 132.558594 74.871094 132.339844 74.664062 132.105469 74.464844 C 131.871094 74.269531 131.625 74.089844 131.367188 73.921875 C 131.113281 73.753906 130.847656 73.601562 130.570312 73.46875 C 130.296875 73.332031 130.015625 73.214844 129.726562 73.113281 C 129.242188 72.921875 128.757812 72.730469 128.230469 72.527344 C 128.339844 72.117188 128.429688 71.742188 128.539062 71.371094 C 128.976562 70.078125 129.097656 68.757812 128.914062 67.410156 C 128.828125 66.910156 128.695312 66.421875 128.515625 65.949219 C 128.335938 65.476562 128.109375 65.023438 127.839844 64.59375 C 127.570312 64.164062 127.261719 63.765625 126.914062 63.398438 C 126.566406 63.027344 126.1875 62.699219 125.773438 62.40625 C 125.359375 62.113281 124.921875 61.863281 124.457031 61.65625 C 123.996094 61.449219 123.519531 61.289062 123.023438 61.175781 C 122.53125 61.0625 122.03125 61 121.523438 60.984375 C 121.015625 60.96875 120.511719 61.003906 120.011719 61.089844 C 119.160156 61.253906 118.328125 61.515625 117.445312 61.738281 C 117.207031 61.132812 116.988281 60.550781 116.753906 59.980469 C 116.640625 59.691406 116.507812 59.410156 116.359375 59.136719 C 116.210938 58.863281 116.042969 58.597656 115.863281 58.347656 C 115.683594 58.09375 115.488281 57.851562 115.277344 57.621094 C 115.066406 57.390625 114.84375 57.175781 114.605469 56.972656 C 114.367188 56.769531 114.121094 56.582031 113.859375 56.410156 C 113.601562 56.238281 113.332031 56.082031 113.054688 55.941406 C 112.777344 55.800781 112.488281 55.679688 112.195312 55.574219 C 111.902344 55.46875 111.605469 55.382812 111.300781 55.3125 C 110.996094 55.246094 110.691406 55.195312 110.378906 55.164062 C 110.070312 55.132812 109.757812 55.121094 109.449219 55.125 C 109.136719 55.132812 108.828125 55.15625 108.519531 55.203125 C 108.210938 55.246094 107.90625 55.308594 107.605469 55.390625 C 107.304688 55.46875 107.007812 55.570312 106.71875 55.6875 C 106.429688 55.804688 106.152344 55.9375 105.878906 56.089844 C 105.605469 56.238281 105.34375 56.40625 105.089844 56.589844 C 104.839844 56.773438 104.597656 56.96875 104.371094 57.179688 C 103.703125 57.789062 103.023438 58.378906 102.292969 59.023438 C 101.917969 58.015625 101.578125 57.109375 101.234375 56.203125 C 100.976562 55.519531 100.625 54.886719 100.1875 54.300781 C 99.746094 53.71875 99.230469 53.207031 98.648438 52.769531 C 98.0625 52.332031 97.425781 51.984375 96.742188 51.726562 C 96.054688 51.472656 95.347656 51.316406 94.617188 51.261719 C 93.890625 51.203125 93.167969 51.253906 92.453125 51.402344 C 91.734375 51.554688 91.054688 51.800781 90.410156 52.144531 C 89.765625 52.492188 89.179688 52.917969 88.65625 53.429688 C 88.132812 53.941406 87.695312 54.515625 87.332031 55.152344 C 86.9375 55.855469 86.574219 56.582031 86.175781 57.328125 C 85.578125 56.96875 85.023438 56.644531 84.480469 56.3125 C 83.992188 56.003906 83.472656 55.753906 82.925781 55.5625 C 82.378906 55.371094 81.820312 55.242188 81.246094 55.175781 C 80.671875 55.113281 80.09375 55.113281 79.519531 55.175781 C 78.945312 55.242188 78.382812 55.367188 77.835938 55.558594 C 77.292969 55.75 76.773438 56 76.28125 56.308594 C 75.792969 56.617188 75.34375 56.976562 74.933594 57.382812 C 74.523438 57.792969 74.167969 58.242188 73.859375 58.734375 C 73.550781 59.222656 73.300781 59.742188 73.113281 60.289062 C 72.9375 60.773438 72.730469 61.246094 72.535156 61.746094 C 71.851562 61.5625 71.238281 61.398438 70.621094 61.230469 C 69.738281 60.984375 68.84375 60.902344 67.933594 60.988281 C 67.023438 61.078125 66.15625 61.324219 65.339844 61.734375 C 64.933594 61.929688 64.550781 62.15625 64.1875 62.417969 C 63.824219 62.679688 63.484375 62.972656 63.171875 63.292969 C 62.855469 63.613281 62.574219 63.960938 62.320312 64.328125 C 62.066406 64.699219 61.847656 65.089844 61.660156 65.496094 C 61.476562 65.90625 61.324219 66.328125 61.214844 66.761719 C 61.101562 67.195312 61.027344 67.636719 60.992188 68.082031 C 60.953125 68.53125 60.957031 68.976562 61 69.425781 C 61.042969 69.871094 61.121094 70.3125 61.238281 70.742188 C 61.375 71.28125 61.476562 71.828125 61.601562 72.402344 C 60.941406 72.519531 60.371094 72.625 59.796875 72.722656 C 59.464844 72.773438 59.136719 72.84375 58.8125 72.933594 C 58.488281 73.027344 58.171875 73.140625 57.863281 73.273438 C 57.554688 73.40625 57.257812 73.558594 56.96875 73.730469 C 56.679688 73.902344 56.402344 74.09375 56.140625 74.300781 C 55.875 74.507812 55.625 74.734375 55.390625 74.972656 C 55.15625 75.214844 54.9375 75.46875 54.738281 75.738281 C 54.535156 76.007812 54.351562 76.289062 54.1875 76.582031 C 54.023438 76.875 53.878906 77.175781 53.753906 77.488281 C 53.628906 77.800781 53.523438 78.121094 53.441406 78.445312 C 53.355469 78.769531 53.292969 79.101562 53.253906 79.433594 C 53.214844 79.769531 53.195312 80.101562 53.199219 80.4375 C 53.203125 80.773438 53.226562 81.109375 53.273438 81.441406 C 53.320312 81.773438 53.386719 82.101562 53.476562 82.425781 C 53.566406 82.75 53.679688 83.066406 53.808594 83.378906 C 53.941406 83.6875 54.089844 83.988281 54.261719 84.277344 C 54.429688 84.566406 54.621094 84.84375 54.824219 85.109375 C 55.195312 85.605469 55.570312 86.09375 55.964844 86.613281 C 55.417969 87.023438 54.929688 87.402344 54.4375 87.773438 C 54.179688 87.957031 53.9375 88.160156 53.703125 88.375 C 53.472656 88.589844 53.253906 88.820312 53.050781 89.0625 C 52.847656 89.304688 52.660156 89.558594 52.488281 89.824219 C 52.316406 90.089844 52.160156 90.367188 52.023438 90.652344 C 51.882812 90.9375 51.761719 91.226562 51.660156 91.527344 C 51.558594 91.828125 51.476562 92.132812 51.410156 92.441406 C 51.347656 92.753906 51.300781 93.066406 51.273438 93.378906 C 51.246094 93.695312 51.242188 94.011719 51.253906 94.328125 C 51.265625 94.644531 51.296875 94.960938 51.351562 95.273438 C 51.402344 95.585938 51.472656 95.894531 51.5625 96.195312 C 51.652344 96.5 51.757812 96.796875 51.882812 97.089844 C 52.011719 97.378906 52.152344 97.660156 52.3125 97.933594 C 52.476562 98.207031 52.652344 98.46875 52.84375 98.71875 C 53.039062 98.96875 53.246094 99.207031 53.46875 99.433594 C 53.691406 99.660156 53.925781 99.871094 54.171875 100.066406 C 54.421875 100.261719 54.679688 100.445312 54.953125 100.609375 C 56.230469 101.429688 56.230469 101.429688 55.703125 102.835938 C 55.484375 103.382812 55.328125 103.941406 55.234375 104.523438 C 55.140625 105.101562 55.117188 105.683594 55.15625 106.269531 C 55.199219 106.855469 55.304688 107.429688 55.476562 107.992188 C 55.648438 108.550781 55.882812 109.085938 56.179688 109.59375 C 56.472656 110.101562 56.820312 110.570312 57.222656 110.996094 C 57.625 111.425781 58.070312 111.804688 58.554688 112.128906 C 59.042969 112.457031 59.5625 112.722656 60.113281 112.929688 C 60.660156 113.136719 61.226562 113.28125 61.808594 113.359375 C 62.375 113.453125 62.941406 113.566406 63.5625 113.679688 C 63.402344 114.386719 63.253906 115.027344 63.113281 115.667969 C 63.011719 116.125 62.949219 116.585938 62.929688 117.054688 C 62.910156 117.519531 62.933594 117.988281 63 118.449219 C 63.0625 118.914062 63.167969 119.367188 63.316406 119.8125 C 63.464844 120.257812 63.648438 120.683594 63.875 121.097656 C 64.097656 121.507812 64.359375 121.894531 64.652344 122.257812 C 64.949219 122.621094 65.273438 122.957031 65.628906 123.261719 C 65.984375 123.566406 66.363281 123.835938 66.765625 124.074219 C 67.171875 124.308594 67.59375 124.507812 68.035156 124.667969 C 69.367188 125.128906 70.730469 125.238281 72.117188 124.992188 C 72.308594 124.9375 72.492188 124.957031 72.664062 125.0625 C 72.832031 125.164062 72.9375 125.316406 72.976562 125.511719 C 73.1875 126.078125 73.441406 126.625 73.742188 127.152344 C 73.980469 127.5625 74.257812 127.949219 74.566406 128.304688 C 74.878906 128.664062 75.222656 128.992188 75.59375 129.289062 C 75.964844 129.582031 76.359375 129.84375 76.78125 130.0625 C 77.199219 130.285156 77.636719 130.46875 78.089844 130.609375 C 78.546875 130.75 79.007812 130.847656 79.480469 130.902344 C 79.953125 130.957031 80.425781 130.964844 80.898438 130.933594 C 81.371094 130.898438 81.839844 130.824219 82.300781 130.703125 C 82.757812 130.582031 83.203125 130.421875 83.632812 130.21875 C 84.398438 129.863281 85.152344 129.472656 85.957031 129.078125 C 86.230469 129.929688 86.449219 130.71875 86.714844 131.480469 C 86.972656 132.265625 87.34375 132.992188 87.832031 133.660156 C 88.324219 134.328125 88.90625 134.902344 89.578125 135.378906 C 90.253906 135.859375 90.984375 136.21875 91.777344 136.464844 C 92.566406 136.707031 93.375 136.820312 94.203125 136.804688 C 95.027344 136.785156 95.832031 136.640625 96.613281 136.363281 C 97.390625 136.085938 98.109375 135.695312 98.761719 135.1875 C 99.414062 134.683594 99.972656 134.085938 100.433594 133.398438 C 100.894531 132.710938 101.238281 131.972656 101.460938 131.175781 C 101.671875 130.492188 101.882812 129.808594 102.113281 129.0625 C 102.894531 129.457031 103.613281 129.835938 104.347656 130.183594 C 104.789062 130.398438 105.246094 130.570312 105.71875 130.695312 C 106.191406 130.820312 106.671875 130.902344 107.164062 130.933594 C 107.652344 130.96875 108.140625 130.957031 108.625 130.894531 C 109.113281 130.835938 109.589844 130.730469 110.054688 130.582031 C 110.523438 130.429688 110.96875 130.234375 111.398438 130 C 111.828125 129.761719 112.230469 129.484375 112.605469 129.171875 C 112.984375 128.859375 113.328125 128.511719 113.636719 128.132812 C 113.945312 127.75 114.21875 127.34375 114.449219 126.914062 C 114.714844 126.417969 114.949219 125.902344 115.144531 125.375 C 115.179688 125.21875 115.269531 125.097656 115.410156 125.015625 C 115.550781 124.933594 115.695312 124.917969 115.851562 124.964844 C 116.464844 125.0625 117.085938 125.109375 117.710938 125.101562 C 118.269531 125.078125 118.820312 124.996094 119.363281 124.851562 C 119.90625 124.710938 120.425781 124.511719 120.925781 124.253906 C 121.425781 124 121.890625 123.691406 122.324219 123.335938 C 122.753906 122.976562 123.144531 122.578125 123.488281 122.136719 C 123.835938 121.691406 124.128906 121.21875 124.371094 120.714844 C 124.613281 120.207031 124.796875 119.679688 124.925781 119.136719 C 125.050781 118.589844 125.121094 118.035156 125.128906 117.472656 C 125.132812 116.914062 125.082031 116.359375 124.96875 115.808594 C 124.832031 115.109375 124.675781 114.410156 124.507812 113.621094 C 127.539062 113.347656 130.15625 112.390625 131.792969 109.691406 C 132.160156 109.0625 132.4375 108.402344 132.628906 107.699219 C 132.816406 107 132.910156 106.289062 132.910156 105.5625 C 132.910156 104.835938 132.816406 104.125 132.628906 103.421875 C 132.4375 102.722656 132.160156 102.058594 131.792969 101.433594 C 132.28125 101.125 132.710938 100.863281 133.132812 100.582031 C 133.765625 100.199219 134.332031 99.734375 134.828125 99.1875 C 135.328125 98.640625 135.734375 98.03125 136.054688 97.363281 C 136.375 96.699219 136.59375 96 136.707031 95.265625 C 136.824219 94.535156 136.832031 93.804688 136.730469 93.070312 Z M 125.527344 88.769531 C 125.785156 89.210938 125.976562 89.679688 126.09375 90.175781 C 126.214844 90.675781 126.261719 91.179688 126.230469 91.691406 C 126.199219 92.203125 126.09375 92.699219 125.917969 93.175781 C 125.738281 93.65625 125.496094 94.101562 125.183594 94.507812 C 124.503906 95.1875 123.722656 95.710938 122.832031 96.078125 C 121.945312 96.441406 121.019531 96.625 120.058594 96.621094 C 118.449219 96.792969 116.839844 96.949219 115.230469 97.113281 C 115.117188 101.152344 114.164062 106.789062 109.953125 111.035156 C 108.988281 111.945312 107.9375 112.753906 106.8125 113.457031 C 105.683594 114.160156 104.5 114.75 103.257812 115.21875 C 102.015625 115.691406 100.738281 116.035156 99.425781 116.253906 C 98.117188 116.472656 96.796875 116.5625 95.46875 116.519531 C 94.9375 116.519531 94.40625 116.503906 93.867188 116.46875 C 87.496094 116.078125 81.78125 113.371094 78.582031 109.226562 C 77.339844 107.460938 76.417969 105.539062 75.8125 103.46875 C 75.207031 101.394531 74.949219 99.28125 75.046875 97.121094 C 73.382812 96.957031 71.722656 96.792969 70.0625 96.617188 C 69.101562 96.621094 68.175781 96.4375 67.289062 96.070312 C 66.398438 95.707031 65.617188 95.183594 64.9375 94.503906 C 64.625 94.09375 64.382812 93.652344 64.203125 93.171875 C 64.023438 92.691406 63.921875 92.195312 63.890625 91.683594 C 63.859375 91.175781 63.90625 90.667969 64.023438 90.171875 C 64.144531 89.675781 64.335938 89.203125 64.59375 88.761719 C 65.109375 87.925781 65.777344 87.238281 66.605469 86.707031 C 67.433594 86.175781 68.335938 85.851562 69.308594 85.730469 C 71.78125 85.515625 74.148438 85.910156 76.417969 86.910156 C 76.445312 86.921875 76.472656 86.9375 76.5 86.949219 C 77.375 84.25 78.601562 81.714844 80.171875 79.347656 L 80.292969 79.429688 C 80.304688 79.410156 80.3125 79.386719 80.320312 79.371094 C 82.242188 79.820312 84.136719 79.730469 86.007812 79.097656 C 86.769531 78.828125 87.484375 78.472656 88.15625 78.027344 C 88.410156 78.828125 88.617188 79.554688 88.871094 80.265625 C 89.109375 81 89.457031 81.679688 89.910156 82.300781 C 90.367188 82.921875 90.910156 83.457031 91.535156 83.902344 C 92.164062 84.347656 92.847656 84.6875 93.582031 84.914062 C 94.320312 85.140625 95.074219 85.246094 95.84375 85.230469 C 96.613281 85.214844 97.363281 85.078125 98.089844 84.820312 C 98.816406 84.5625 99.484375 84.199219 100.09375 83.726562 C 100.699219 83.253906 101.21875 82.699219 101.652344 82.058594 C 102.082031 81.421875 102.398438 80.730469 102.605469 79.988281 C 102.796875 79.351562 103 78.714844 103.21875 78.015625 C 103.863281 78.453125 104.554688 78.804688 105.292969 79.058594 C 107.003906 79.632812 108.734375 79.703125 110.484375 79.269531 L 110.863281 80.125 C 112.164062 82.238281 113.183594 84.476562 113.914062 86.847656 C 116.121094 85.894531 118.417969 85.527344 120.8125 85.746094 C 121.785156 85.863281 122.6875 86.1875 123.515625 86.71875 C 124.34375 87.25 125.011719 87.933594 125.527344 88.769531 Z M 75.621094 90.238281 C 75.585938 90.226562 75.546875 90.226562 75.507812 90.210938 C 74.667969 89.90625 73.824219 89.601562 72.960938 89.371094 C 72.25 89.144531 71.519531 89.03125 70.773438 89.03125 C 70.59375 89.03125 70.410156 89.03125 70.230469 89.046875 C 70.164062 89.046875 70.039062 89.066406 69.984375 89.074219 C 69.652344 89.136719 69.324219 89.21875 69 89.316406 L 68.914062 89.34375 C 68.867188 89.367188 68.816406 89.390625 68.769531 89.414062 C 68.609375 89.492188 68.453125 89.582031 68.300781 89.675781 C 68.210938 89.734375 67.957031 89.960938 68.152344 89.773438 C 68.007812 89.910156 67.859375 90.046875 67.722656 90.195312 C 67.710938 90.210938 67.695312 90.222656 67.683594 90.234375 C 67.675781 90.261719 67.664062 90.285156 67.648438 90.308594 C 67.628906 90.339844 67.535156 90.507812 67.484375 90.59375 C 67.46875 90.65625 67.375 90.894531 67.363281 90.945312 C 67.339844 91.015625 67.324219 91.082031 67.308594 91.152344 C 67.308594 91.175781 67.296875 91.25 67.289062 91.300781 L 67.289062 91.402344 C 67.289062 91.472656 67.289062 91.539062 67.289062 91.613281 C 67.289062 91.648438 67.289062 91.667969 67.289062 91.683594 L 67.296875 91.710938 C 67.304688 91.742188 67.34375 91.898438 67.371094 91.996094 C 67.421875 92.085938 67.46875 92.175781 67.507812 92.269531 C 67.5625 92.328125 67.65625 92.445312 67.691406 92.476562 C 67.726562 92.511719 67.78125 92.546875 67.828125 92.582031 L 67.867188 92.605469 L 68.121094 92.742188 C 68.15625 92.769531 68.195312 92.792969 68.238281 92.808594 C 68.332031 92.839844 68.425781 92.875 68.519531 92.902344 C 68.832031 93 69.152344 93.074219 69.476562 93.125 C 69.585938 93.144531 70.03125 93.203125 69.695312 93.164062 C 69.898438 93.1875 70.09375 93.210938 70.292969 93.230469 C 71.921875 93.402344 73.550781 93.566406 75.183594 93.726562 C 75.257812 92.554688 75.40625 91.390625 75.621094 90.238281 Z M 111.929688 93.195312 C 111.648438 89.730469 110.691406 86.460938 109.0625 83.390625 C 108.660156 83.433594 108.261719 83.425781 107.863281 83.363281 C 107.15625 83.277344 106.472656 83.101562 105.8125 82.839844 C 105.660156 82.777344 105.507812 82.75 105.328125 82.6875 C 104.902344 83.605469 104.355469 84.445312 103.691406 85.203125 C 103.023438 85.964844 102.265625 86.617188 101.414062 87.164062 C 100.5625 87.707031 99.652344 88.121094 98.679688 88.40625 C 97.710938 88.691406 96.71875 88.835938 95.707031 88.835938 C 94.695312 88.839844 93.707031 88.699219 92.734375 88.417969 C 91.761719 88.136719 90.847656 87.726562 89.996094 87.1875 C 89.140625 86.644531 88.378906 85.996094 87.710938 85.238281 C 87.042969 84.476562 86.492188 83.640625 86.0625 82.726562 C 85.925781 82.746094 85.796875 82.773438 85.667969 82.816406 C 84.324219 83.355469 82.9375 83.523438 81.503906 83.316406 C 79.46875 87.011719 78.382812 90.96875 78.253906 95.183594 C 78.171875 98.234375 78.039062 103.328125 81.097656 107.28125 C 83.742188 110.707031 88.589844 112.953125 94.058594 113.296875 C 95.289062 113.421875 96.519531 113.421875 97.75 113.289062 C 98.980469 113.15625 100.183594 112.894531 101.359375 112.507812 C 102.535156 112.121094 103.65625 111.613281 104.722656 110.988281 C 105.792969 110.363281 106.78125 109.632812 107.695312 108.796875 C 112.738281 103.710938 112.125 95.796875 111.929688 93.195312 Z M 122.835938 91.683594 C 122.835938 91.660156 122.835938 91.636719 122.835938 91.613281 C 122.835938 91.542969 122.835938 91.476562 122.835938 91.402344 L 122.835938 91.300781 C 122.828125 91.25 122.820312 91.175781 122.816406 91.152344 C 122.800781 91.082031 122.785156 91.015625 122.765625 90.945312 C 122.75 90.894531 122.65625 90.65625 122.640625 90.59375 C 122.589844 90.507812 122.496094 90.339844 122.476562 90.308594 C 122.460938 90.285156 122.449219 90.261719 122.441406 90.234375 C 122.429688 90.222656 122.417969 90.210938 122.40625 90.195312 C 122.269531 90.046875 122.121094 89.914062 121.972656 89.773438 C 122.167969 89.960938 121.914062 89.734375 121.824219 89.675781 C 121.671875 89.582031 121.515625 89.492188 121.355469 89.414062 C 121.308594 89.390625 121.261719 89.367188 121.210938 89.34375 L 121.125 89.316406 C 120.800781 89.21875 120.476562 89.136719 120.144531 89.074219 C 120.085938 89.074219 119.957031 89.050781 119.898438 89.046875 C 119.714844 89.035156 119.53125 89.027344 119.351562 89.03125 C 118.605469 89.03125 117.875 89.144531 117.164062 89.371094 C 116.34375 89.589844 115.539062 89.878906 114.738281 90.167969 C 114.910156 91.089844 115.035156 92.019531 115.113281 92.953125 C 115.128906 93.171875 115.144531 93.425781 115.164062 93.703125 C 116.726562 93.546875 118.285156 93.386719 119.84375 93.226562 C 120.042969 93.207031 120.242188 93.183594 120.441406 93.160156 C 120.105469 93.199219 120.550781 93.140625 120.664062 93.121094 C 120.984375 93.070312 121.304688 92.996094 121.621094 92.898438 C 121.714844 92.871094 121.808594 92.835938 121.902344 92.804688 C 121.945312 92.789062 121.984375 92.765625 122.019531 92.738281 L 122.273438 92.601562 L 122.3125 92.578125 C 122.355469 92.542969 122.421875 92.492188 122.441406 92.472656 C 122.460938 92.457031 122.578125 92.324219 122.625 92.265625 C 122.664062 92.171875 122.710938 92.082031 122.761719 91.992188 C 122.789062 91.894531 122.832031 91.738281 122.839844 91.707031 Z M 122.835938 91.683594 " fill-opacity="1" fill-rule="nonzero"/></g><path fill="#ffffff" d="M 31.269531 123.4375 C 30.3125 123.4375 29.355469 123.074219 28.625 122.34375 L 0.15625 93.9375 L 28.625 65.53125 C 30.085938 64.070312 32.457031 64.070312 33.917969 65.53125 C 35.378906 66.988281 35.378906 69.351562 33.917969 70.8125 L 10.746094 93.9375 L 33.917969 117.0625 C 35.378906 118.519531 35.378906 120.886719 33.917969 122.34375 C 33.1875 123.074219 32.230469 123.4375 31.269531 123.4375 " fill-opacity="1" fill-rule="nonzero"/></svg>