<svg xmlns="http://www.w3.org/2000/svg" xmlns:xlink="http://www.w3.org/1999/xlink" width="250" zoomAndPan="magnify" viewBox="0 0 187.5 187.499992" height="250" preserveAspectRatio="xMidYMid meet" version="1.0"><defs><clipPath id="cecaf4011f"><path d="M 21.316406 10.132812 L 166 10.132812 L 166 177.316406 L 21.316406 177.316406 Z M 21.316406 10.132812 " clip-rule="nonzero"/></clipPath><clipPath id="6a8822245b"><path d="M 39 39 L 148.339844 39 L 148.339844 148.339844 L 39 148.339844 Z M 39 39 " clip-rule="nonzero"/></clipPath></defs><g clip-path="url(#cecaf4011f)"><path fill="#000000" d="M 165.992188 135.519531 L 93.664062 177.316406 L 21.335938 135.519531 L 21.335938 51.929688 L 93.664062 10.132812 L 165.992188 51.929688 L 165.992188 135.519531 " fill-opacity="1" fill-rule="nonzero"/></g><g clip-path="url(#6a8822245b)"><path fill="#ffffff" d="M 133.023438 94.378906 C 133.066406 94.351562 133.113281 94.324219 133.164062 94.304688 Z M 108.703125 95.945312 C 108.164062 95.792969 107.652344 95.863281 107.167969 96.144531 C 106.90625 96.332031 106.628906 96.488281 106.335938 96.621094 C 106.058594 96.722656 105.777344 96.800781 105.488281 96.855469 C 105.226562 96.875 104.96875 96.875 104.710938 96.855469 C 104.414062 96.800781 104.128906 96.71875 103.847656 96.617188 C 103.609375 96.507812 103.382812 96.378906 103.167969 96.234375 C 102.941406 96.101562 102.695312 96.019531 102.433594 95.988281 C 102.171875 95.953125 101.914062 95.96875 101.660156 96.035156 C 101.40625 96.101562 101.171875 96.214844 100.960938 96.375 C 100.75 96.53125 100.578125 96.722656 100.441406 96.949219 C 100.167969 97.433594 100.097656 97.945312 100.242188 98.484375 C 100.398438 98.996094 100.703125 99.390625 101.15625 99.675781 C 101.75 100.074219 102.394531 100.375 103.078125 100.582031 C 103.765625 100.785156 104.46875 100.882812 105.183594 100.875 C 105.898438 100.867188 106.597656 100.75 107.28125 100.53125 C 107.960938 100.308594 108.59375 99.992188 109.179688 99.582031 C 109.617188 99.285156 109.921875 98.890625 110.09375 98.390625 C 110.164062 98.136719 110.183594 97.875 110.152344 97.613281 C 110.121094 97.351562 110.039062 97.105469 109.90625 96.875 C 109.777344 96.644531 109.609375 96.449219 109.398438 96.289062 C 109.191406 96.125 108.957031 96.007812 108.703125 95.9375 Z M 88.636719 96.238281 C 88.421875 96.382812 88.195312 96.511719 87.960938 96.621094 C 87.679688 96.726562 87.390625 96.804688 87.097656 96.859375 C 86.835938 96.878906 86.578125 96.878906 86.316406 96.859375 C 86.027344 96.804688 85.746094 96.726562 85.46875 96.628906 C 85.175781 96.496094 84.898438 96.335938 84.636719 96.148438 C 84.152344 95.867188 83.640625 95.800781 83.101562 95.949219 C 82.847656 96.019531 82.613281 96.132812 82.40625 96.296875 C 82.199219 96.460938 82.027344 96.65625 81.898438 96.886719 C 81.765625 97.117188 81.6875 97.363281 81.652344 97.625 C 81.621094 97.886719 81.640625 98.144531 81.710938 98.398438 C 81.882812 98.898438 82.1875 99.296875 82.625 99.589844 C 83.210938 100.003906 83.84375 100.320312 84.527344 100.539062 C 85.207031 100.761719 85.90625 100.875 86.621094 100.882812 C 87.339844 100.890625 88.039062 100.792969 88.726562 100.589844 C 89.414062 100.386719 90.054688 100.082031 90.648438 99.683594 C 91.101562 99.402344 91.40625 99.003906 91.5625 98.492188 C 91.707031 97.953125 91.640625 97.441406 91.363281 96.957031 C 91.226562 96.734375 91.054688 96.539062 90.84375 96.382812 C 90.632812 96.222656 90.402344 96.109375 90.148438 96.042969 C 89.890625 95.976562 89.632812 95.957031 89.371094 95.992188 C 89.113281 96.027344 88.867188 96.109375 88.636719 96.238281 Z M 143.132812 104.609375 C 144.546875 109.855469 142.800781 114.125 138.867188 117.582031 C 137.644531 118.476562 136.351562 119.261719 134.996094 119.941406 C 134.804688 120.058594 134.53125 120.289062 134.539062 120.457031 C 134.582031 121.351562 134.539062 122.242188 134.402344 123.132812 C 134.269531 124.019531 134.050781 124.882812 133.746094 125.730469 C 133.441406 126.574219 133.054688 127.378906 132.589844 128.144531 C 132.125 128.914062 131.589844 129.628906 130.984375 130.289062 C 130.375 130.953125 129.710938 131.546875 128.988281 132.078125 C 128.261719 132.609375 127.492188 133.0625 126.679688 133.441406 C 125.867188 133.816406 125.023438 134.113281 124.148438 134.324219 C 123.277344 134.53125 122.394531 134.65625 121.496094 134.691406 C 121.082031 134.695312 120.78125 134.882812 120.59375 135.253906 C 119.617188 136.8125 118.375 138.117188 116.867188 139.167969 C 115.359375 140.21875 113.703125 140.933594 111.902344 141.308594 C 110.027344 141.703125 108.203125 141.535156 106.433594 140.796875 C 106.246094 140.722656 106.046875 140.679688 105.824219 140.609375 C 105.289062 141.757812 104.605469 142.808594 103.773438 143.761719 C 102.941406 144.714844 101.988281 145.535156 100.921875 146.214844 C 99.855469 146.898438 98.714844 147.417969 97.5 147.773438 C 96.28125 148.128906 95.042969 148.308594 93.773438 148.3125 C 92.507812 148.3125 91.265625 148.136719 90.050781 147.785156 C 88.832031 147.429688 87.691406 146.914062 86.621094 146.238281 C 85.550781 145.558594 84.601562 144.742188 83.761719 143.792969 C 82.925781 142.839844 82.242188 141.789062 81.703125 140.644531 C 81.535156 140.671875 81.371094 140.710938 81.207031 140.761719 C 77.179688 142.339844 73.597656 141.289062 70.273438 138.871094 C 68.910156 137.855469 67.785156 136.625 66.890625 135.179688 C 66.703125 134.835938 66.410156 134.675781 66.019531 134.703125 C 65.152344 134.667969 64.296875 134.550781 63.453125 134.355469 C 62.609375 134.15625 61.792969 133.878906 61 133.527344 C 60.210938 133.171875 59.460938 132.746094 58.75 132.25 C 58.042969 131.75 57.386719 131.191406 56.785156 130.566406 C 56.183594 129.945312 55.644531 129.269531 55.171875 128.542969 C 54.699219 127.816406 54.296875 127.050781 53.972656 126.25 C 53.644531 125.445312 53.398438 124.621094 53.230469 123.769531 C 53.0625 122.921875 52.976562 122.0625 52.972656 121.195312 C 53 121.027344 52.996094 120.859375 52.960938 120.691406 C 52.921875 120.527344 52.859375 120.371094 52.765625 120.230469 C 52.667969 120.085938 52.554688 119.96875 52.414062 119.871094 C 52.273438 119.773438 52.121094 119.703125 51.953125 119.664062 C 50.738281 119.152344 49.625 118.472656 48.613281 117.625 C 47.601562 116.777344 46.734375 115.800781 46.015625 114.695312 C 45.296875 113.589844 44.757812 112.402344 44.394531 111.132812 C 44.03125 109.863281 43.863281 108.570312 43.890625 107.253906 C 43.941406 106.457031 44.078125 105.679688 44.300781 104.917969 C 44.394531 104.6875 44.40625 104.453125 44.339844 104.210938 C 44.273438 103.972656 44.140625 103.78125 43.941406 103.628906 C 42.792969 102.660156 41.839844 101.527344 41.082031 100.230469 C 40.324219 98.933594 39.804688 97.546875 39.523438 96.074219 C 39.351562 95.148438 39.289062 94.214844 39.332031 93.273438 C 39.378906 92.335938 39.535156 91.414062 39.796875 90.507812 C 40.058594 89.605469 40.425781 88.742188 40.890625 87.925781 C 41.355469 87.109375 41.910156 86.355469 42.554688 85.667969 C 42.722656 85.523438 42.863281 85.351562 42.96875 85.152344 C 43.078125 84.957031 43.144531 84.746094 43.175781 84.523438 C 43.203125 84.300781 43.191406 84.078125 43.140625 83.863281 C 43.089844 83.644531 43 83.441406 42.871094 83.257812 C 42.5 82.453125 42.210938 81.625 42.007812 80.761719 C 41.804688 79.902344 41.695312 79.03125 41.667969 78.144531 C 41.644531 77.261719 41.710938 76.386719 41.867188 75.515625 C 42.023438 74.644531 42.265625 73.796875 42.597656 72.976562 C 42.925781 72.15625 43.335938 71.378906 43.824219 70.640625 C 44.3125 69.90625 44.871094 69.226562 45.5 68.605469 C 46.128906 67.980469 46.8125 67.429688 47.554688 66.949219 C 48.296875 66.464844 49.078125 66.0625 49.902344 65.742188 C 50.035156 65.710938 50.160156 65.65625 50.273438 65.574219 C 50.386719 65.496094 50.480469 65.398438 50.554688 65.28125 C 50.628906 65.164062 50.679688 65.039062 50.703125 64.902344 C 50.730469 64.765625 50.726562 64.628906 50.699219 64.492188 C 50.691406 63.785156 50.738281 63.078125 50.839844 62.375 C 50.941406 61.671875 51.097656 60.984375 51.3125 60.304688 C 51.523438 59.628906 51.785156 58.96875 52.101562 58.335938 C 52.414062 57.699219 52.777344 57.089844 53.1875 56.511719 C 53.597656 55.933594 54.050781 55.390625 54.550781 54.882812 C 55.046875 54.375 55.578125 53.910156 56.148438 53.484375 C 56.71875 53.0625 57.316406 52.683594 57.945312 52.355469 C 58.574219 52.027344 59.226562 51.75 59.898438 51.523438 C 61.765625 50.804688 63.683594 50.628906 65.652344 50.996094 C 66.109375 51.09375 66.246094 50.878906 66.4375 50.574219 C 67.410156 48.929688 68.675781 47.554688 70.234375 46.449219 C 71.796875 45.339844 73.511719 44.601562 75.386719 44.226562 C 76.539062 43.976562 77.699219 43.925781 78.871094 44.078125 C 80.039062 44.234375 81.148438 44.578125 82.199219 45.117188 C 82.300781 45.191406 82.414062 45.242188 82.535156 45.269531 C 82.660156 45.296875 82.78125 45.292969 82.902344 45.265625 C 83.027344 45.238281 83.136719 45.1875 83.238281 45.109375 C 83.335938 45.03125 83.417969 44.9375 83.476562 44.828125 C 84.433594 43.472656 85.613281 42.351562 87.011719 41.460938 C 88.410156 40.570312 89.925781 39.976562 91.558594 39.679688 C 92.761719 39.457031 93.972656 39.40625 95.191406 39.527344 C 96.40625 39.652344 97.585938 39.941406 98.71875 40.398438 C 99.855469 40.855469 100.902344 41.460938 101.867188 42.214844 C 102.828125 42.96875 103.667969 43.84375 104.382812 44.835938 C 104.664062 45.191406 104.910156 45.570312 105.199219 45.972656 C 105.324219 45.929688 105.445312 45.875 105.5625 45.816406 C 106.300781 45.382812 107.070312 45.027344 107.878906 44.75 C 108.683594 44.46875 109.511719 44.273438 110.355469 44.15625 C 111.203125 44.039062 112.050781 44.007812 112.902344 44.0625 C 113.753906 44.113281 114.59375 44.25 115.417969 44.46875 C 116.246094 44.6875 117.039062 44.984375 117.804688 45.359375 C 118.574219 45.738281 119.292969 46.183594 119.972656 46.703125 C 120.648438 47.222656 121.269531 47.804688 121.832031 48.445312 C 122.394531 49.085938 122.890625 49.777344 123.316406 50.519531 C 123.488281 50.792969 123.574219 51.09375 124.066406 51.003906 C 125.714844 50.726562 127.347656 50.789062 128.96875 51.195312 C 130.589844 51.601562 132.058594 52.320312 133.378906 53.34375 C 134.265625 53.953125 135.070312 54.664062 135.785156 55.472656 C 136.5 56.277344 137.105469 57.160156 137.605469 58.117188 C 138.105469 59.074219 138.480469 60.074219 138.734375 61.121094 C 138.988281 62.171875 139.109375 63.234375 139.105469 64.3125 C 139.136719 64.585938 139.117188 64.855469 139.046875 65.121094 C 138.714844 65.984375 139.089844 66.398438 139.804688 66.894531 C 140.808594 67.523438 141.707031 68.273438 142.507812 69.144531 C 143.304688 70.019531 143.96875 70.980469 144.503906 72.035156 C 145.042969 73.089844 145.425781 74.199219 145.660156 75.355469 C 145.890625 76.515625 145.964844 77.6875 145.882812 78.863281 C 145.75 80.707031 145.222656 82.425781 144.300781 84.027344 C 144.1875 84.183594 144.140625 84.359375 144.167969 84.550781 C 144.195312 84.746094 144.285156 84.902344 144.441406 85.019531 C 144.753906 85.328125 145.050781 85.65625 145.332031 85.996094 C 145.613281 86.335938 145.875 86.6875 146.117188 87.058594 C 146.359375 87.425781 146.582031 87.804688 146.785156 88.195312 C 146.988281 88.589844 147.167969 88.988281 147.328125 89.398438 C 147.488281 89.8125 147.628906 90.230469 147.746094 90.652344 C 147.859375 91.078125 147.953125 91.511719 148.023438 91.945312 C 148.09375 92.378906 148.144531 92.816406 148.167969 93.257812 C 148.191406 93.699219 148.191406 94.140625 148.171875 94.578125 C 148.148438 95.019531 148.105469 95.457031 148.035156 95.894531 C 147.96875 96.328125 147.875 96.757812 147.761719 97.183594 C 147.648438 97.613281 147.511719 98.03125 147.355469 98.441406 C 147.195312 98.851562 147.015625 99.253906 146.816406 99.648438 C 146.617188 100.039062 146.394531 100.421875 146.152344 100.792969 C 145.914062 101.160156 145.652344 101.515625 145.375 101.859375 C 145.097656 102.199219 144.800781 102.527344 144.488281 102.835938 C 144.175781 103.148438 143.847656 103.441406 143.503906 103.714844 C 143.238281 103.960938 143.003906 104.132812 143.132812 104.609375 Z M 143.566406 92.796875 C 143.429688 91.535156 143.035156 90.359375 142.386719 89.269531 C 141.738281 88.179688 140.894531 87.273438 139.851562 86.550781 L 138.136719 85.265625 C 138.59375 84.660156 139.007812 84.125 139.414062 83.582031 C 139.636719 83.304688 139.839844 83.011719 140.03125 82.710938 C 140.21875 82.40625 140.386719 82.09375 140.539062 81.769531 C 140.6875 81.445312 140.820312 81.117188 140.933594 80.777344 C 141.042969 80.4375 141.132812 80.09375 141.203125 79.746094 C 141.273438 79.394531 141.324219 79.042969 141.351562 78.6875 C 141.378906 78.332031 141.386719 77.976562 141.375 77.617188 C 141.359375 77.261719 141.324219 76.910156 141.269531 76.554688 C 141.210938 76.203125 141.132812 75.855469 141.035156 75.511719 C 140.9375 75.171875 140.820312 74.835938 140.683594 74.503906 C 140.542969 74.175781 140.386719 73.855469 140.210938 73.546875 C 140.035156 73.238281 139.839844 72.9375 139.628906 72.652344 C 139.417969 72.363281 139.191406 72.089844 138.945312 71.832031 C 138.699219 71.570312 138.441406 71.328125 138.167969 71.097656 C 137.894531 70.871094 137.609375 70.65625 137.308594 70.460938 C 137.011719 70.269531 136.703125 70.089844 136.382812 69.933594 C 136.0625 69.777344 135.734375 69.636719 135.398438 69.519531 C 134.832031 69.296875 134.265625 69.074219 133.652344 68.835938 C 133.78125 68.359375 133.882812 67.917969 134.011719 67.488281 C 134.519531 65.980469 134.664062 64.441406 134.445312 62.867188 C 134.347656 62.28125 134.195312 61.714844 133.984375 61.164062 C 133.773438 60.609375 133.511719 60.085938 133.195312 59.582031 C 132.882812 59.082031 132.523438 58.617188 132.117188 58.1875 C 131.710938 57.757812 131.265625 57.371094 130.785156 57.03125 C 130.300781 56.6875 129.792969 56.394531 129.25 56.15625 C 128.710938 55.914062 128.15625 55.726562 127.578125 55.59375 C 127.003906 55.464844 126.417969 55.390625 125.828125 55.375 C 125.238281 55.355469 124.648438 55.398438 124.066406 55.496094 C 123.074219 55.6875 122.101562 55.992188 121.074219 56.253906 C 120.796875 55.546875 120.539062 54.871094 120.265625 54.203125 C 120.132812 53.867188 119.976562 53.535156 119.804688 53.21875 C 119.628906 52.898438 119.4375 52.589844 119.226562 52.296875 C 119.015625 52 118.789062 51.71875 118.542969 51.449219 C 118.296875 51.183594 118.035156 50.929688 117.757812 50.695312 C 117.484375 50.457031 117.195312 50.238281 116.890625 50.039062 C 116.589844 49.835938 116.273438 49.65625 115.949219 49.492188 C 115.625 49.328125 115.292969 49.1875 114.949219 49.0625 C 114.609375 48.941406 114.261719 48.839844 113.90625 48.761719 C 113.550781 48.679688 113.191406 48.621094 112.832031 48.585938 C 112.46875 48.546875 112.109375 48.535156 111.746094 48.542969 C 111.382812 48.546875 111.019531 48.578125 110.660156 48.628906 C 110.300781 48.679688 109.945312 48.753906 109.59375 48.847656 C 109.242188 48.941406 108.898438 49.058594 108.5625 49.195312 C 108.226562 49.332031 107.898438 49.488281 107.582031 49.664062 C 107.261719 49.839844 106.957031 50.035156 106.664062 50.246094 C 106.367188 50.460938 106.089844 50.691406 105.820312 50.9375 C 105.042969 51.644531 104.25 52.335938 103.402344 53.085938 C 102.960938 51.914062 102.566406 50.855469 102.164062 49.796875 C 101.863281 49 101.453125 48.261719 100.941406 47.578125 C 100.429688 46.898438 99.828125 46.300781 99.144531 45.792969 C 98.460938 45.28125 97.722656 44.875 96.921875 44.578125 C 96.125 44.277344 95.300781 44.097656 94.449219 44.03125 C 93.597656 43.96875 92.753906 44.023438 91.921875 44.199219 C 91.085938 44.375 90.292969 44.664062 89.539062 45.066406 C 88.789062 45.46875 88.105469 45.964844 87.496094 46.5625 C 86.886719 47.15625 86.371094 47.828125 85.953125 48.570312 C 85.488281 49.394531 85.0625 50.238281 84.601562 51.109375 C 83.902344 50.691406 83.257812 50.3125 82.625 49.925781 C 82.339844 49.746094 82.046875 49.582031 81.742188 49.4375 C 81.4375 49.289062 81.128906 49.160156 80.8125 49.050781 C 80.492188 48.9375 80.171875 48.84375 79.84375 48.769531 C 79.515625 48.695312 79.183594 48.636719 78.851562 48.601562 C 78.515625 48.5625 78.179688 48.542969 77.84375 48.542969 C 77.507812 48.542969 77.171875 48.5625 76.835938 48.597656 C 76.503906 48.636719 76.171875 48.691406 75.84375 48.765625 C 75.515625 48.84375 75.191406 48.933594 74.875 49.046875 C 74.558594 49.15625 74.246094 49.285156 73.945312 49.433594 C 73.640625 49.578125 73.347656 49.738281 73.0625 49.917969 C 72.777344 50.097656 72.503906 50.292969 72.242188 50.503906 C 71.976562 50.710938 71.726562 50.9375 71.488281 51.175781 C 71.25 51.414062 71.027344 51.664062 70.820312 51.925781 C 70.609375 52.1875 70.414062 52.464844 70.234375 52.75 C 70.058594 53.03125 69.894531 53.328125 69.75 53.628906 C 69.601562 53.933594 69.476562 54.242188 69.363281 54.5625 C 69.160156 55.128906 68.921875 55.675781 68.691406 56.265625 C 67.894531 56.050781 67.179688 55.859375 66.457031 55.660156 C 65.429688 55.371094 64.386719 55.277344 63.324219 55.378906 C 62.261719 55.480469 61.253906 55.769531 60.296875 56.246094 C 59.828125 56.472656 59.378906 56.742188 58.953125 57.046875 C 58.53125 57.351562 58.132812 57.691406 57.769531 58.066406 C 57.402344 58.441406 57.074219 58.84375 56.777344 59.277344 C 56.480469 59.707031 56.226562 60.160156 56.007812 60.636719 C 55.792969 61.113281 55.617188 61.605469 55.484375 62.113281 C 55.355469 62.617188 55.269531 63.132812 55.226562 63.652344 C 55.183594 64.175781 55.1875 64.695312 55.238281 65.21875 C 55.285156 65.738281 55.378906 66.25 55.515625 66.757812 C 55.675781 67.382812 55.792969 68.019531 55.941406 68.691406 C 55.167969 68.828125 54.507812 68.953125 53.832031 69.066406 C 53.445312 69.125 53.0625 69.207031 52.6875 69.3125 C 52.308594 69.417969 51.941406 69.550781 51.582031 69.707031 C 51.21875 69.859375 50.871094 70.039062 50.535156 70.238281 C 50.199219 70.441406 49.875 70.660156 49.566406 70.90625 C 49.261719 71.148438 48.96875 71.410156 48.695312 71.691406 C 48.421875 71.96875 48.167969 72.269531 47.933594 72.582031 C 47.699219 72.894531 47.484375 73.222656 47.292969 73.566406 C 47.101562 73.90625 46.929688 74.257812 46.785156 74.625 C 46.640625 74.988281 46.519531 75.359375 46.421875 75.738281 C 46.324219 76.117188 46.25 76.503906 46.203125 76.890625 C 46.15625 77.28125 46.132812 77.671875 46.136719 78.0625 C 46.140625 78.457031 46.171875 78.847656 46.226562 79.234375 C 46.28125 79.621094 46.359375 80.003906 46.464844 80.382812 C 46.570312 80.761719 46.699219 81.128906 46.851562 81.492188 C 47.003906 81.851562 47.179688 82.203125 47.378906 82.539062 C 47.574219 82.878906 47.796875 83.203125 48.035156 83.511719 C 48.464844 84.089844 48.902344 84.660156 49.367188 85.265625 C 48.726562 85.742188 48.160156 86.183594 47.582031 86.617188 C 47.28125 86.835938 47 87.070312 46.726562 87.320312 C 46.457031 87.570312 46.203125 87.839844 45.964844 88.121094 C 45.730469 88.40625 45.511719 88.703125 45.308594 89.011719 C 45.109375 89.320312 44.925781 89.644531 44.765625 89.976562 C 44.605469 90.308594 44.464844 90.648438 44.34375 90.996094 C 44.226562 91.347656 44.128906 91.703125 44.054688 92.0625 C 43.976562 92.425781 43.925781 92.789062 43.894531 93.160156 C 43.863281 93.527344 43.855469 93.894531 43.871094 94.265625 C 43.886719 94.632812 43.921875 95 43.980469 95.363281 C 44.042969 95.730469 44.125 96.089844 44.230469 96.441406 C 44.332031 96.796875 44.457031 97.144531 44.605469 97.484375 C 44.753906 97.820312 44.917969 98.148438 45.105469 98.46875 C 45.292969 98.785156 45.5 99.09375 45.726562 99.386719 C 45.949219 99.679688 46.191406 99.957031 46.453125 100.21875 C 46.710938 100.480469 46.984375 100.726562 47.277344 100.957031 C 47.566406 101.1875 47.867188 101.398438 48.183594 101.589844 C 49.675781 102.546875 49.675781 102.546875 49.058594 104.1875 C 48.929688 104.503906 48.820312 104.828125 48.730469 105.15625 C 48.636719 105.484375 48.566406 105.816406 48.511719 106.15625 C 48.460938 106.492188 48.425781 106.832031 48.410156 107.171875 C 48.394531 107.511719 48.398438 107.851562 48.421875 108.191406 C 48.445312 108.535156 48.492188 108.871094 48.554688 109.207031 C 48.617188 109.542969 48.695312 109.871094 48.796875 110.199219 C 48.898438 110.523438 49.015625 110.84375 49.152344 111.15625 C 49.289062 111.46875 49.441406 111.773438 49.613281 112.070312 C 49.785156 112.363281 49.972656 112.648438 50.175781 112.921875 C 50.378906 113.195312 50.597656 113.457031 50.832031 113.707031 C 51.066406 113.953125 51.3125 114.191406 51.570312 114.410156 C 51.832031 114.632812 52.105469 114.835938 52.386719 115.027344 C 52.671875 115.214844 52.964844 115.390625 53.269531 115.546875 C 53.570312 115.703125 53.882812 115.839844 54.203125 115.960938 C 54.519531 116.082031 54.84375 116.183594 55.175781 116.265625 C 55.507812 116.351562 55.839844 116.414062 56.179688 116.460938 C 56.84375 116.570312 57.5 116.699219 58.222656 116.832031 C 58.039062 117.660156 57.867188 118.402344 57.703125 119.152344 C 57.582031 119.683594 57.511719 120.222656 57.488281 120.769531 C 57.464844 121.316406 57.492188 121.859375 57.566406 122.398438 C 57.644531 122.941406 57.769531 123.46875 57.9375 123.988281 C 58.109375 124.507812 58.328125 125.003906 58.589844 125.484375 C 58.851562 125.964844 59.15625 126.414062 59.496094 126.839844 C 59.839844 127.265625 60.222656 127.652344 60.636719 128.007812 C 61.050781 128.367188 61.492188 128.679688 61.964844 128.957031 C 62.433594 129.230469 62.929688 129.460938 63.441406 129.648438 C 64.996094 130.1875 66.585938 130.3125 68.207031 130.03125 C 68.3125 129.996094 68.421875 129.988281 68.53125 130.003906 C 68.640625 130.015625 68.746094 130.050781 68.839844 130.109375 C 68.933594 130.167969 69.015625 130.242188 69.078125 130.335938 C 69.140625 130.425781 69.183594 130.527344 69.203125 130.636719 C 69.453125 131.296875 69.75 131.933594 70.097656 132.546875 C 70.378906 133.027344 70.699219 133.476562 71.0625 133.894531 C 71.425781 134.3125 71.824219 134.695312 72.257812 135.039062 C 72.691406 135.382812 73.152344 135.683594 73.644531 135.945312 C 74.132812 136.203125 74.644531 136.414062 75.171875 136.578125 C 75.703125 136.742188 76.242188 136.855469 76.792969 136.921875 C 77.34375 136.984375 77.894531 136.996094 78.445312 136.957031 C 79 136.917969 79.542969 136.828125 80.078125 136.6875 C 80.617188 136.550781 81.132812 136.359375 81.636719 136.125 C 82.53125 135.710938 83.40625 135.257812 84.34375 134.792969 C 84.664062 135.789062 84.917969 136.707031 85.230469 137.597656 C 85.527344 138.511719 85.964844 139.359375 86.535156 140.140625 C 87.105469 140.917969 87.785156 141.585938 88.570312 142.144531 C 89.355469 142.703125 90.210938 143.125 91.132812 143.40625 C 92.054688 143.691406 92.996094 143.824219 93.960938 143.804688 C 94.925781 143.785156 95.863281 143.613281 96.773438 143.292969 C 97.683594 142.96875 98.519531 142.511719 99.28125 141.921875 C 100.042969 141.332031 100.691406 140.632812 101.230469 139.832031 C 101.769531 139.03125 102.167969 138.167969 102.425781 137.238281 C 102.671875 136.441406 102.917969 135.644531 103.1875 134.777344 C 104.101562 135.234375 104.941406 135.675781 105.792969 136.085938 C 106.308594 136.335938 106.839844 136.53125 107.394531 136.679688 C 107.945312 136.828125 108.507812 136.921875 109.078125 136.960938 C 109.648438 137 110.21875 136.984375 110.785156 136.914062 C 111.351562 136.84375 111.910156 136.722656 112.453125 136.546875 C 112.996094 136.371094 113.519531 136.144531 114.019531 135.867188 C 114.519531 135.589844 114.988281 135.269531 115.429688 134.902344 C 115.867188 134.539062 116.269531 134.132812 116.628906 133.6875 C 116.992188 133.246094 117.304688 132.773438 117.578125 132.269531 C 117.886719 131.6875 118.160156 131.089844 118.390625 130.476562 C 118.429688 130.289062 118.535156 130.152344 118.695312 130.054688 C 118.859375 129.960938 119.03125 129.941406 119.210938 129.996094 C 119.929688 130.113281 120.652344 130.164062 121.378906 130.15625 C 122.035156 130.128906 122.675781 130.03125 123.308594 129.867188 C 123.941406 129.699219 124.550781 129.46875 125.132812 129.167969 C 125.714844 128.871094 126.257812 128.511719 126.761719 128.09375 C 127.265625 127.679688 127.71875 127.210938 128.121094 126.695312 C 128.523438 126.179688 128.867188 125.628906 129.148438 125.039062 C 129.429688 124.449219 129.648438 123.832031 129.796875 123.195312 C 129.945312 122.558594 130.023438 121.914062 130.03125 121.261719 C 130.039062 120.605469 129.976562 119.957031 129.84375 119.316406 C 129.6875 118.5 129.503906 117.6875 129.3125 116.765625 C 132.84375 116.449219 135.898438 115.332031 137.808594 112.183594 C 138.234375 111.449219 138.558594 110.675781 138.78125 109.859375 C 139 109.042969 139.109375 108.210938 139.109375 107.367188 C 139.109375 106.519531 139 105.6875 138.78125 104.871094 C 138.558594 104.054688 138.234375 103.28125 137.808594 102.550781 C 138.375 102.191406 138.878906 101.882812 139.367188 101.558594 C 140.105469 101.113281 140.765625 100.570312 141.347656 99.929688 C 141.929688 99.292969 142.40625 98.585938 142.777344 97.804688 C 143.152344 97.027344 143.40625 96.210938 143.539062 95.359375 C 143.671875 94.507812 143.683594 93.652344 143.566406 92.796875 Z M 130.496094 87.78125 C 130.800781 88.292969 131.019531 88.84375 131.160156 89.421875 C 131.300781 90.003906 131.351562 90.589844 131.316406 91.1875 C 131.28125 91.785156 131.160156 92.363281 130.953125 92.921875 C 130.746094 93.480469 130.460938 94 130.097656 94.472656 C 129.304688 95.265625 128.390625 95.875 127.355469 96.304688 C 126.320312 96.730469 125.242188 96.941406 124.121094 96.9375 C 122.242188 97.140625 120.367188 97.320312 118.492188 97.511719 C 118.359375 102.222656 117.246094 108.796875 112.335938 113.75 C 111.207031 114.8125 109.984375 115.753906 108.667969 116.574219 C 107.355469 117.394531 105.972656 118.082031 104.523438 118.628906 C 103.074219 119.179688 101.585938 119.582031 100.054688 119.835938 C 98.527344 120.089844 96.988281 120.195312 95.441406 120.144531 C 94.820312 120.144531 94.199219 120.125 93.570312 120.085938 C 86.140625 119.628906 79.472656 116.472656 75.746094 111.640625 C 74.296875 109.578125 73.21875 107.339844 72.511719 104.921875 C 71.808594 102.503906 71.507812 100.039062 71.621094 97.523438 C 69.679688 97.328125 67.742188 97.140625 65.804688 96.933594 C 64.6875 96.9375 63.605469 96.722656 62.570312 96.296875 C 61.535156 95.871094 60.621094 95.261719 59.828125 94.46875 C 59.464844 93.992188 59.179688 93.476562 58.972656 92.914062 C 58.765625 92.355469 58.644531 91.777344 58.609375 91.179688 C 58.574219 90.585938 58.625 89.996094 58.765625 89.417969 C 58.90625 88.835938 59.125 88.289062 59.429688 87.773438 C 60.027344 86.796875 60.8125 85.996094 61.777344 85.375 C 62.738281 84.757812 63.792969 84.378906 64.929688 84.238281 C 67.808594 83.988281 70.574219 84.445312 73.21875 85.613281 C 73.25 85.625 73.28125 85.644531 73.3125 85.660156 C 74.335938 82.507812 75.765625 79.554688 77.597656 76.792969 L 77.742188 76.890625 C 77.753906 76.867188 77.765625 76.835938 77.773438 76.816406 C 80.011719 77.34375 82.222656 77.238281 84.402344 76.5 C 85.292969 76.1875 86.128906 75.769531 86.914062 75.25 C 87.210938 76.1875 87.445312 77.03125 87.746094 77.863281 C 88.023438 78.71875 88.425781 79.507812 88.957031 80.234375 C 89.488281 80.957031 90.121094 81.582031 90.851562 82.101562 C 91.585938 82.625 92.378906 83.015625 93.238281 83.28125 C 94.097656 83.546875 94.976562 83.671875 95.875 83.652344 C 96.773438 83.632812 97.648438 83.476562 98.496094 83.175781 C 99.34375 82.875 100.121094 82.449219 100.832031 81.898438 C 101.542969 81.347656 102.148438 80.699219 102.648438 79.953125 C 103.152344 79.207031 103.523438 78.402344 103.765625 77.539062 C 103.988281 76.792969 104.226562 76.050781 104.476562 75.234375 C 105.230469 75.75 106.035156 76.15625 106.898438 76.457031 C 108.894531 77.125 110.910156 77.207031 112.953125 76.703125 L 113.394531 77.695312 C 114.914062 80.160156 116.101562 82.777344 116.957031 85.539062 C 119.527344 84.425781 122.207031 83.996094 125 84.253906 C 126.136719 84.390625 127.1875 84.769531 128.152344 85.386719 C 129.117188 86.007812 129.898438 86.804688 130.5 87.78125 Z M 72.292969 89.492188 C 72.246094 89.480469 72.203125 89.480469 72.15625 89.460938 C 71.179688 89.105469 70.195312 88.75 69.1875 88.480469 C 68.359375 88.21875 67.507812 88.085938 66.636719 88.085938 C 66.425781 88.085938 66.210938 88.085938 66 88.101562 C 65.925781 88.101562 65.78125 88.128906 65.714844 88.136719 C 65.328125 88.210938 64.945312 88.304688 64.570312 88.421875 L 64.46875 88.449219 C 64.410156 88.476562 64.355469 88.503906 64.296875 88.53125 C 64.113281 88.625 63.929688 88.726562 63.753906 88.839844 C 63.648438 88.90625 63.351562 89.167969 63.578125 88.949219 C 63.410156 89.109375 63.238281 89.269531 63.078125 89.445312 C 63.0625 89.460938 63.046875 89.476562 63.03125 89.488281 C 63.023438 89.519531 63.011719 89.550781 62.992188 89.574219 C 62.972656 89.613281 62.859375 89.808594 62.800781 89.90625 C 62.78125 89.980469 62.671875 90.257812 62.65625 90.316406 C 62.632812 90.398438 62.613281 90.476562 62.597656 90.5625 C 62.597656 90.585938 62.582031 90.671875 62.570312 90.734375 L 62.570312 90.851562 C 62.570312 90.933594 62.570312 91.011719 62.570312 91.097656 C 62.570312 91.136719 62.570312 91.160156 62.570312 91.179688 L 62.582031 91.210938 C 62.589844 91.25 62.636719 91.429688 62.667969 91.542969 C 62.730469 91.648438 62.78125 91.753906 62.828125 91.863281 C 62.890625 91.933594 63 92.066406 63.042969 92.105469 C 63.085938 92.144531 63.144531 92.1875 63.203125 92.226562 L 63.246094 92.253906 L 63.542969 92.414062 C 63.582031 92.449219 63.628906 92.472656 63.679688 92.492188 C 63.789062 92.53125 63.898438 92.566406 64.007812 92.601562 C 64.375 92.710938 64.746094 92.800781 65.121094 92.863281 C 65.25 92.886719 65.773438 92.953125 65.382812 92.90625 C 65.613281 92.933594 65.84375 92.960938 66.078125 92.984375 C 67.976562 93.183594 69.878906 93.375 71.777344 93.5625 C 71.867188 92.195312 72.039062 90.839844 72.292969 89.492188 Z M 114.640625 92.945312 C 114.308594 88.902344 113.195312 85.089844 111.292969 81.507812 C 110.824219 81.558594 110.359375 81.546875 109.894531 81.472656 C 109.074219 81.375 108.277344 81.171875 107.503906 80.863281 C 107.328125 80.789062 107.148438 80.761719 106.941406 80.6875 C 106.445312 81.757812 105.804688 82.734375 105.03125 83.621094 C 104.253906 84.511719 103.367188 85.273438 102.375 85.90625 C 101.378906 86.542969 100.316406 87.023438 99.183594 87.355469 C 98.054688 87.6875 96.898438 87.855469 95.71875 87.859375 C 94.539062 87.859375 93.382812 87.699219 92.25 87.371094 C 91.117188 87.042969 90.050781 86.5625 89.054688 85.933594 C 88.058594 85.300781 87.171875 84.542969 86.390625 83.660156 C 85.609375 82.773438 84.96875 81.800781 84.46875 80.730469 C 84.3125 80.753906 84.15625 80.789062 84.007812 80.835938 C 82.441406 81.46875 80.824219 81.664062 79.152344 81.421875 C 76.777344 85.730469 75.511719 90.34375 75.363281 95.261719 C 75.269531 98.820312 75.113281 104.757812 78.675781 109.375 C 81.765625 113.367188 87.417969 115.988281 93.796875 116.386719 C 95.230469 116.535156 96.664062 116.53125 98.101562 116.375 C 99.535156 116.222656 100.9375 115.917969 102.308594 115.464844 C 103.679688 115.015625 104.988281 114.421875 106.234375 113.695312 C 107.480469 112.964844 108.632812 112.113281 109.699219 111.140625 C 115.578125 105.207031 114.867188 95.976562 114.640625 92.945312 Z M 127.359375 91.179688 C 127.359375 91.152344 127.359375 91.125 127.359375 91.097656 C 127.359375 91.015625 127.359375 90.9375 127.359375 90.851562 L 127.359375 90.734375 C 127.351562 90.671875 127.339844 90.585938 127.335938 90.5625 C 127.320312 90.480469 127.296875 90.402344 127.277344 90.316406 C 127.261719 90.257812 127.152344 89.980469 127.128906 89.90625 C 127.070312 89.808594 126.960938 89.613281 126.941406 89.574219 C 126.925781 89.546875 126.910156 89.519531 126.898438 89.488281 C 126.882812 89.476562 126.871094 89.460938 126.855469 89.445312 C 126.695312 89.273438 126.523438 89.113281 126.351562 88.949219 C 126.582031 89.167969 126.285156 88.90625 126.179688 88.839844 C 126.003906 88.726562 125.820312 88.625 125.632812 88.53125 C 125.578125 88.503906 125.519531 88.476562 125.464844 88.449219 L 125.363281 88.421875 C 124.988281 88.304688 124.605469 88.210938 124.21875 88.136719 C 124.152344 88.136719 124.003906 88.109375 123.933594 88.101562 C 123.71875 88.089844 123.507812 88.082031 123.292969 88.085938 C 122.425781 88.085938 121.574219 88.21875 120.742188 88.480469 C 119.789062 88.738281 118.851562 89.074219 117.917969 89.410156 C 118.117188 90.488281 118.261719 91.570312 118.351562 92.660156 C 118.371094 92.914062 118.390625 93.210938 118.414062 93.535156 C 120.230469 93.351562 122.050781 93.164062 123.871094 92.980469 C 124.101562 92.957031 124.332031 92.929688 124.566406 92.902344 C 124.175781 92.945312 124.695312 92.878906 124.824219 92.859375 C 125.203125 92.792969 125.574219 92.707031 125.941406 92.597656 C 126.050781 92.5625 126.160156 92.523438 126.269531 92.488281 C 126.320312 92.46875 126.367188 92.441406 126.410156 92.410156 L 126.707031 92.25 L 126.75 92.222656 C 126.796875 92.183594 126.878906 92.121094 126.898438 92.101562 C 126.921875 92.078125 127.058594 91.925781 127.113281 91.859375 C 127.160156 91.75 127.214844 91.640625 127.273438 91.539062 C 127.304688 91.425781 127.355469 91.246094 127.363281 91.207031 Z M 127.359375 91.179688 " fill-opacity="1" fill-rule="nonzero"/></g></svg>