<svg xmlns="http://www.w3.org/2000/svg" xmlns:xlink="http://www.w3.org/1999/xlink" width="250" zoomAndPan="magnify" viewBox="0 0 187.5 187.499992" height="250" preserveAspectRatio="xMidYMid meet" version="1.0"><defs><clipPath id="c199781a08"><path d="M 10.828125 19 L 176.699219 19 L 176.699219 169 L 10.828125 169 Z M 10.828125 19 " clip-rule="nonzero"/></clipPath><clipPath id="2b5e803e97"><path d="M 38.53125 24.296875 L 148.511719 24.296875 L 148.511719 134.273438 L 38.53125 134.273438 Z M 38.53125 24.296875 " clip-rule="nonzero"/></clipPath></defs><g clip-path="url(#c199781a08)"><path fill="#ffffff" d="M 93.421875 168.117188 C 91.554688 168.117188 89.835938 167.109375 88.917969 165.480469 L 11.488281 27.527344 C 10.59375 25.925781 10.609375 23.960938 11.53125 22.375 C 12.460938 20.789062 14.152344 19.816406 15.992188 19.816406 L 45.367188 19.816406 C 45.550781 19.792969 45.75 19.78125 45.949219 19.78125 L 75.140625 19.78125 C 76.992188 19.78125 78.691406 20.773438 79.613281 22.375 L 93.421875 46.4375 L 107.246094 22.375 C 108.167969 20.773438 109.875 19.78125 111.722656 19.78125 L 140.910156 19.78125 C 141.128906 19.78125 141.34375 19.792969 141.558594 19.820312 L 170.847656 19.820312 C 172.6875 19.820312 174.378906 20.800781 175.300781 22.382812 C 176.226562 23.96875 176.246094 25.933594 175.34375 27.535156 L 97.914062 165.480469 C 97.007812 167.109375 95.285156 168.117188 93.421875 168.117188 Z M 24.820312 30.164062 L 93.421875 152.390625 L 162.019531 30.171875 L 140.890625 30.171875 C 140.667969 30.171875 140.457031 30.15625 140.242188 30.128906 L 114.707031 30.128906 L 97.894531 59.390625 C 96.972656 60.996094 95.265625 61.984375 93.421875 61.984375 C 91.570312 61.984375 89.867188 60.988281 88.945312 59.390625 L 72.152344 30.128906 L 46.535156 30.128906 C 46.351562 30.148438 46.152344 30.164062 45.949219 30.164062 Z M 24.820312 30.164062 " fill-opacity="1" fill-rule="nonzero"/></g><g clip-path="url(#2b5e803e97)"><path fill="#ffffff" d="M 130.296875 76.230469 C 130.296875 76.261719 130.296875 76.292969 130.296875 76.320312 L 130.289062 76.355469 C 130.277344 76.398438 130.222656 76.59375 130.191406 76.722656 C 130.125 76.835938 130.066406 76.953125 130.015625 77.070312 C 129.949219 77.144531 129.828125 77.292969 129.78125 77.335938 C 129.734375 77.382812 129.667969 77.429688 129.613281 77.472656 L 129.566406 77.5 L 129.242188 77.675781 C 129.265625 77.675781 129.164062 77.734375 129.089844 77.757812 C 128.96875 77.800781 128.851562 77.84375 128.726562 77.878906 C 128.328125 78 127.917969 78.097656 127.503906 78.167969 C 127.363281 78.191406 126.792969 78.265625 127.222656 78.214844 L 126.457031 78.300781 C 124.460938 78.503906 122.46875 78.707031 120.46875 78.90625 C 120.445312 78.558594 120.421875 78.226562 120.402344 77.949219 C 120.304688 76.753906 120.144531 75.566406 119.925781 74.386719 C 120.949219 74.015625 121.976562 73.648438 123.027344 73.363281 C 123.9375 73.078125 124.871094 72.933594 125.824219 72.929688 C 126.058594 72.929688 126.292969 72.929688 126.523438 72.949219 C 126.605469 72.949219 126.765625 72.980469 126.839844 72.988281 C 127.265625 73.066406 127.683594 73.171875 128.09375 73.296875 L 128.207031 73.332031 L 128.390625 73.417969 C 128.597656 73.519531 128.796875 73.632812 128.992188 73.757812 C 129.105469 73.832031 129.429688 74.117188 129.179688 73.882812 C 129.367188 74.054688 129.558594 74.230469 129.734375 74.421875 C 129.746094 74.441406 129.761719 74.453125 129.78125 74.46875 C 129.792969 74.503906 129.808594 74.535156 129.828125 74.566406 C 129.847656 74.605469 129.96875 74.820312 130.035156 74.929688 C 130.058594 75.007812 130.175781 75.316406 130.195312 75.378906 C 130.210938 75.441406 130.242188 75.554688 130.257812 75.644531 C 130.257812 75.671875 130.277344 75.769531 130.285156 75.835938 L 130.285156 75.964844 C 130.300781 76.050781 130.292969 76.136719 130.296875 76.230469 Z M 148.082031 78.097656 C 148.210938 79.035156 148.199219 79.972656 148.050781 80.910156 C 147.90625 81.84375 147.628906 82.742188 147.21875 83.59375 C 146.808594 84.449219 146.285156 85.226562 145.644531 85.929688 C 145.007812 86.628906 144.285156 87.222656 143.472656 87.714844 C 142.933594 88.070312 142.382812 88.414062 141.761719 88.800781 C 142.230469 89.605469 142.585938 90.453125 142.828125 91.347656 C 143.070312 92.246094 143.191406 93.15625 143.191406 94.085938 C 143.191406 95.015625 143.070312 95.925781 142.828125 96.820312 C 142.585938 97.71875 142.230469 98.566406 141.761719 99.367188 C 139.664062 102.824219 136.316406 104.054688 132.441406 104.398438 C 132.652344 105.414062 132.84375 106.308594 133.027344 107.195312 C 133.171875 107.898438 133.238281 108.609375 133.230469 109.328125 C 133.222656 110.042969 133.136719 110.753906 132.972656 111.453125 C 132.808594 112.152344 132.570312 112.824219 132.261719 113.472656 C 131.953125 114.117188 131.578125 114.726562 131.136719 115.289062 C 130.691406 115.855469 130.195312 116.367188 129.644531 116.824219 C 129.089844 117.28125 128.492188 117.675781 127.855469 118.003906 C 127.21875 118.332031 126.550781 118.585938 125.855469 118.769531 C 125.164062 118.949219 124.457031 119.058594 123.738281 119.085938 C 122.941406 119.097656 122.148438 119.039062 121.363281 118.910156 C 121.164062 118.851562 120.976562 118.871094 120.796875 118.976562 C 120.617188 119.082031 120.503906 119.234375 120.460938 119.4375 C 120.207031 120.113281 119.910156 120.769531 119.566406 121.40625 C 119.269531 121.957031 118.921875 122.476562 118.527344 122.960938 C 118.128906 123.449219 117.6875 123.890625 117.207031 124.292969 C 116.722656 124.695312 116.207031 125.046875 115.660156 125.351562 C 115.109375 125.652344 114.535156 125.902344 113.9375 126.09375 C 113.339844 126.285156 112.730469 126.417969 112.105469 126.496094 C 111.484375 126.570312 110.859375 126.585938 110.234375 126.542969 C 109.605469 126.496094 108.992188 126.394531 108.386719 126.230469 C 107.777344 126.070312 107.195312 125.851562 106.628906 125.574219 C 105.691406 125.128906 104.773438 124.644531 103.769531 124.140625 C 103.476562 125.09375 103.207031 125.96875 102.9375 126.84375 C 102.652344 127.863281 102.214844 128.808594 101.625 129.6875 C 101.035156 130.566406 100.320312 131.332031 99.484375 131.980469 C 98.648438 132.628906 97.730469 133.128906 96.734375 133.480469 C 95.734375 133.835938 94.707031 134.023438 93.648438 134.042969 C 92.589844 134.066406 91.558594 133.921875 90.546875 133.609375 C 89.535156 133.296875 88.597656 132.835938 87.734375 132.222656 C 86.871094 131.609375 86.128906 130.875 85.5 130.023438 C 84.875 129.171875 84.398438 128.242188 84.070312 127.234375 C 83.722656 126.25 83.441406 125.25 83.101562 124.160156 C 82.074219 124.664062 81.113281 125.164062 80.128906 125.617188 C 79.578125 125.878906 79.007812 126.085938 78.421875 126.238281 C 77.832031 126.390625 77.234375 126.488281 76.628906 126.53125 C 76.023438 126.574219 75.417969 126.5625 74.8125 126.492188 C 74.210938 126.421875 73.617188 126.296875 73.035156 126.117188 C 72.457031 125.9375 71.898438 125.703125 71.359375 125.421875 C 70.824219 125.136719 70.316406 124.804688 69.839844 124.429688 C 69.363281 124.050781 68.925781 123.628906 68.527344 123.171875 C 68.132812 122.710938 67.777344 122.21875 67.472656 121.695312 C 67.089844 121.023438 66.761719 120.320312 66.492188 119.597656 C 66.46875 119.476562 66.421875 119.367188 66.351562 119.265625 C 66.285156 119.164062 66.195312 119.082031 66.089844 119.019531 C 65.988281 118.957031 65.875 118.914062 65.753906 118.902344 C 65.632812 118.886719 65.511719 118.894531 65.394531 118.929688 C 63.617188 119.242188 61.875 119.105469 60.167969 118.515625 C 59.605469 118.308594 59.066406 118.054688 58.546875 117.753906 C 58.03125 117.453125 57.546875 117.105469 57.089844 116.714844 C 56.636719 116.324219 56.21875 115.898438 55.84375 115.433594 C 55.464844 114.964844 55.132812 114.472656 54.847656 113.945312 C 54.558594 113.417969 54.320312 112.871094 54.132812 112.304688 C 53.945312 111.734375 53.808594 111.152344 53.726562 110.5625 C 53.644531 109.96875 53.613281 109.371094 53.640625 108.773438 C 53.664062 108.175781 53.742188 107.582031 53.875 107 C 54.050781 106.179688 54.242188 105.359375 54.445312 104.453125 C 53.652344 104.308594 52.929688 104.167969 52.203125 104.046875 C 51.832031 103.996094 51.464844 103.925781 51.101562 103.832031 C 50.742188 103.742188 50.386719 103.628906 50.035156 103.496094 C 49.6875 103.363281 49.34375 103.210938 49.011719 103.039062 C 48.679688 102.871094 48.359375 102.679688 48.046875 102.472656 C 47.738281 102.265625 47.4375 102.039062 47.152344 101.796875 C 46.867188 101.554688 46.597656 101.296875 46.34375 101.027344 C 46.085938 100.753906 45.847656 100.464844 45.625 100.167969 C 45.402344 99.867188 45.195312 99.554688 45.007812 99.230469 C 44.820312 98.910156 44.652344 98.574219 44.5 98.234375 C 44.351562 97.890625 44.222656 97.539062 44.109375 97.183594 C 44 96.824219 43.910156 96.464844 43.84375 96.097656 C 43.773438 95.726562 43.726562 95.359375 43.699219 94.984375 C 43.671875 94.613281 43.667969 94.238281 43.683594 93.867188 C 43.699219 93.492188 43.738281 93.121094 43.796875 92.75 C 43.855469 92.382812 43.933594 92.015625 44.03125 91.65625 C 44.132812 91.296875 44.253906 90.941406 44.390625 90.597656 C 45.066406 88.789062 45.066406 88.789062 43.429688 87.746094 C 43.085938 87.535156 42.753906 87.304688 42.433594 87.054688 C 42.117188 86.800781 41.816406 86.53125 41.53125 86.242188 C 41.246094 85.953125 40.980469 85.648438 40.734375 85.328125 C 40.488281 85.007812 40.261719 84.671875 40.054688 84.324219 C 39.851562 83.972656 39.667969 83.613281 39.503906 83.242188 C 39.34375 82.871094 39.207031 82.488281 39.09375 82.101562 C 38.976562 81.710938 38.886719 81.316406 38.820312 80.917969 C 38.757812 80.519531 38.714844 80.117188 38.699219 79.710938 C 38.683594 79.304688 38.691406 78.902344 38.726562 78.5 C 38.757812 78.09375 38.816406 77.695312 38.898438 77.296875 C 38.984375 76.902344 39.089844 76.511719 39.21875 76.128906 C 39.351562 75.746094 39.503906 75.371094 39.683594 75.003906 C 39.859375 74.640625 40.058594 74.289062 40.277344 73.949219 C 40.5 73.609375 40.738281 73.285156 41 72.972656 C 41.257812 72.664062 41.539062 72.371094 41.835938 72.09375 C 42.128906 71.816406 42.441406 71.558594 42.769531 71.324219 C 43.402344 70.847656 44.035156 70.363281 44.726562 69.839844 C 44.222656 69.167969 43.738281 68.542969 43.269531 67.914062 C 43.003906 67.574219 42.765625 67.21875 42.546875 66.851562 C 42.328125 66.480469 42.136719 66.09375 41.96875 65.699219 C 41.800781 65.304688 41.660156 64.898438 41.542969 64.484375 C 41.429688 64.070312 41.34375 63.648438 41.28125 63.222656 C 41.222656 62.796875 41.191406 62.371094 41.1875 61.9375 C 41.183594 61.507812 41.207031 61.082031 41.257812 60.652344 C 41.308594 60.226562 41.390625 59.804688 41.496094 59.386719 C 41.601562 58.972656 41.738281 58.5625 41.898438 58.164062 C 42.058594 57.765625 42.242188 57.378906 42.453125 57.003906 C 42.664062 56.628906 42.898438 56.269531 43.15625 55.925781 C 43.414062 55.582031 43.691406 55.253906 43.992188 54.945312 C 44.292969 54.640625 44.613281 54.351562 44.949219 54.085938 C 45.289062 53.820312 45.640625 53.574219 46.011719 53.355469 C 46.378906 53.136719 46.761719 52.941406 47.15625 52.769531 C 47.550781 52.601562 47.957031 52.457031 48.371094 52.339844 C 48.785156 52.222656 49.203125 52.132812 49.628906 52.070312 C 50.363281 51.941406 51.09375 51.804688 51.941406 51.652344 C 51.78125 50.917969 51.648438 50.21875 51.476562 49.535156 C 51.324219 48.980469 51.222656 48.417969 51.167969 47.84375 C 51.117188 47.273438 51.113281 46.703125 51.15625 46.128906 C 51.203125 45.558594 51.300781 44.992188 51.441406 44.4375 C 51.585938 43.882812 51.777344 43.34375 52.015625 42.820312 C 52.253906 42.296875 52.535156 41.800781 52.859375 41.328125 C 53.183594 40.851562 53.546875 40.410156 53.945312 40 C 54.347656 39.589844 54.78125 39.21875 55.246094 38.882812 C 55.710938 38.546875 56.203125 38.253906 56.71875 38.003906 C 57.769531 37.480469 58.875 37.164062 60.039062 37.054688 C 61.203125 36.945312 62.351562 37.046875 63.480469 37.359375 C 64.269531 37.578125 65.050781 37.789062 65.925781 38.023438 C 66.179688 37.386719 66.441406 36.78125 66.667969 36.15625 C 66.789062 35.808594 66.929688 35.46875 67.089844 35.136719 C 67.25 34.804688 67.425781 34.480469 67.621094 34.167969 C 67.820312 33.855469 68.03125 33.554688 68.261719 33.265625 C 68.492188 32.976562 68.738281 32.703125 68.996094 32.441406 C 69.257812 32.179688 69.535156 31.933594 69.820312 31.703125 C 70.109375 31.472656 70.410156 31.261719 70.722656 31.066406 C 71.035156 30.867188 71.359375 30.691406 71.691406 30.53125 C 72.023438 30.371094 72.363281 30.230469 72.710938 30.105469 C 73.0625 29.984375 73.414062 29.882812 73.773438 29.800781 C 74.132812 29.71875 74.496094 29.65625 74.863281 29.617188 C 75.230469 29.574219 75.597656 29.554688 75.96875 29.554688 C 76.335938 29.554688 76.707031 29.574219 77.070312 29.617188 C 77.4375 29.660156 77.800781 29.722656 78.160156 29.804688 C 78.523438 29.886719 78.875 29.988281 79.222656 30.109375 C 79.570312 30.234375 79.914062 30.375 80.246094 30.535156 C 80.578125 30.695312 80.898438 30.875 81.210938 31.070312 C 81.910156 31.503906 82.609375 31.914062 83.382812 32.371094 C 83.886719 31.414062 84.355469 30.488281 84.863281 29.585938 C 85.324219 28.769531 85.886719 28.035156 86.558594 27.382812 C 87.226562 26.726562 87.972656 26.179688 88.800781 25.738281 C 89.625 25.296875 90.496094 24.980469 91.410156 24.789062 C 92.328125 24.597656 93.25 24.535156 94.183594 24.605469 C 95.117188 24.675781 96.023438 24.875 96.898438 25.203125 C 97.773438 25.53125 98.585938 25.976562 99.335938 26.535156 C 100.085938 27.097656 100.742188 27.75 101.304688 28.5 C 101.871094 29.246094 102.316406 30.054688 102.648438 30.929688 C 103.089844 32.089844 103.523438 33.25 104.003906 34.539062 C 104.933594 33.714844 105.808594 32.964844 106.660156 32.179688 C 106.953125 31.90625 107.261719 31.652344 107.582031 31.417969 C 107.90625 31.183594 108.242188 30.96875 108.589844 30.773438 C 108.9375 30.582031 109.296875 30.40625 109.667969 30.257812 C 110.039062 30.105469 110.414062 29.980469 110.800781 29.875 C 111.1875 29.769531 111.574219 29.6875 111.972656 29.632812 C 112.367188 29.574219 112.761719 29.542969 113.164062 29.535156 C 113.5625 29.523438 113.960938 29.539062 114.355469 29.578125 C 114.753906 29.621094 115.148438 29.683594 115.539062 29.769531 C 115.925781 29.859375 116.308594 29.96875 116.6875 30.105469 C 117.0625 30.238281 117.429688 30.394531 117.785156 30.574219 C 118.140625 30.753906 118.488281 30.953125 118.820312 31.171875 C 119.152344 31.394531 119.46875 31.632812 119.773438 31.894531 C 120.078125 32.152344 120.363281 32.429688 120.632812 32.722656 C 120.902344 33.019531 121.15625 33.328125 121.386719 33.652344 C 121.617188 33.976562 121.832031 34.316406 122.019531 34.664062 C 122.210938 35.015625 122.382812 35.378906 122.527344 35.75 C 122.828125 36.480469 123.109375 37.21875 123.414062 37.996094 C 124.539062 37.710938 125.605469 37.375 126.699219 37.167969 C 127.335938 37.058594 127.980469 37.015625 128.628906 37.03125 C 129.277344 37.050781 129.917969 37.132812 130.550781 37.277344 C 131.183594 37.417969 131.792969 37.625 132.386719 37.890625 C 132.976562 38.152344 133.539062 38.472656 134.066406 38.851562 C 134.59375 39.226562 135.082031 39.648438 135.527344 40.121094 C 135.972656 40.589844 136.367188 41.101562 136.710938 41.652344 C 137.058594 42.199219 137.34375 42.777344 137.574219 43.382812 C 137.808594 43.988281 137.976562 44.613281 138.085938 45.25 C 138.324219 46.980469 138.164062 48.667969 137.609375 50.320312 C 137.464844 50.792969 137.355469 51.273438 137.214844 51.800781 L 139.128906 52.550781 C 139.496094 52.679688 139.855469 52.832031 140.207031 53.003906 C 140.558594 53.175781 140.898438 53.371094 141.226562 53.585938 C 141.554688 53.796875 141.867188 54.03125 142.167969 54.28125 C 142.46875 54.53125 142.753906 54.800781 143.019531 55.085938 C 143.289062 55.371094 143.539062 55.671875 143.769531 55.984375 C 144.003906 56.300781 144.214844 56.628906 144.410156 56.96875 C 144.601562 57.308594 144.773438 57.660156 144.925781 58.019531 C 145.078125 58.378906 145.207031 58.75 145.3125 59.125 C 145.421875 59.5 145.507812 59.882812 145.570312 60.269531 C 145.628906 60.65625 145.667969 61.042969 145.683594 61.433594 C 145.699219 61.828125 145.691406 62.21875 145.660156 62.605469 C 145.628906 62.996094 145.574219 63.382812 145.5 63.765625 C 145.421875 64.152344 145.320312 64.527344 145.199219 64.898438 C 145.078125 65.273438 144.933594 65.636719 144.769531 65.988281 C 144.601562 66.34375 144.417969 66.6875 144.210938 67.019531 C 144.003906 67.351562 143.777344 67.671875 143.53125 67.976562 C 143.085938 68.570312 142.636719 69.160156 142.132812 69.824219 C 142.789062 70.316406 143.398438 70.773438 144.007812 71.222656 C 145.152344 72.019531 146.078125 73.015625 146.792969 74.21875 C 147.503906 75.417969 147.933594 76.710938 148.082031 78.097656 Z M 133.746094 72.59375 C 133.085938 71.519531 132.230469 70.644531 131.171875 69.964844 C 130.113281 69.28125 128.960938 68.867188 127.710938 68.714844 C 124.648438 68.433594 121.707031 68.90625 118.886719 70.125 C 117.945312 67.097656 116.644531 64.230469 114.976562 61.53125 L 114.492188 60.441406 C 112.253906 60.992188 110.039062 60.902344 107.851562 60.167969 C 106.90625 59.835938 106.023438 59.390625 105.199219 58.828125 C 104.925781 59.722656 104.664062 60.539062 104.417969 61.351562 C 104.152344 62.300781 103.746094 63.1875 103.195312 64.003906 C 102.644531 64.820312 101.980469 65.53125 101.199219 66.136719 C 100.417969 66.742188 99.566406 67.207031 98.636719 67.535156 C 97.707031 67.863281 96.746094 68.035156 95.761719 68.054688 C 94.777344 68.074219 93.8125 67.941406 92.871094 67.648438 C 91.929688 67.359375 91.054688 66.925781 90.253906 66.355469 C 89.449219 65.78125 88.757812 65.097656 88.175781 64.304688 C 87.589844 63.507812 87.148438 62.640625 86.84375 61.703125 C 86.519531 60.792969 86.257812 59.863281 85.933594 58.835938 C 85.070312 59.40625 84.152344 59.863281 83.179688 60.203125 C 80.789062 61.015625 78.363281 61.132812 75.90625 60.554688 C 75.90625 60.578125 75.882812 60.609375 75.871094 60.632812 L 75.710938 60.527344 C 73.703125 63.554688 72.136719 66.796875 71.015625 70.253906 C 70.980469 70.238281 70.945312 70.21875 70.910156 70.207031 C 68.007812 68.925781 64.976562 68.421875 61.816406 68.695312 C 60.570312 68.847656 59.414062 69.265625 58.355469 69.945312 C 57.296875 70.625 56.441406 71.503906 55.785156 72.574219 C 55.449219 73.140625 55.207031 73.738281 55.054688 74.375 C 54.902344 75.015625 54.84375 75.660156 54.882812 76.3125 C 54.921875 76.96875 55.054688 77.601562 55.285156 78.214844 C 55.511719 78.828125 55.824219 79.398438 56.21875 79.917969 C 57.089844 80.789062 58.09375 81.457031 59.230469 81.925781 C 60.367188 82.394531 61.550781 82.625 62.777344 82.621094 C 64.902344 82.851562 67.03125 83.058594 69.15625 83.269531 C 69.03125 86.03125 69.355469 88.742188 70.132812 91.398438 C 70.90625 94.050781 72.085938 96.511719 73.675781 98.773438 C 77.765625 104.070312 85.078125 107.53125 93.230469 108.039062 C 93.917969 108.082031 94.601562 108.105469 95.28125 108.105469 C 96.980469 108.15625 98.667969 108.042969 100.347656 107.761719 C 102.023438 107.484375 103.65625 107.042969 105.246094 106.441406 C 106.835938 105.839844 108.351562 105.085938 109.792969 104.1875 C 111.238281 103.285156 112.578125 102.253906 113.816406 101.089844 C 119.203125 95.65625 120.421875 88.445312 120.566406 83.273438 C 122.628906 83.066406 124.6875 82.867188 126.742188 82.644531 C 127.972656 82.648438 129.15625 82.417969 130.292969 81.949219 C 131.429688 81.480469 132.433594 80.8125 133.300781 79.941406 C 133.699219 79.421875 134.015625 78.855469 134.242188 78.238281 C 134.472656 77.625 134.605469 76.988281 134.644531 76.335938 C 134.683594 75.679688 134.628906 75.035156 134.476562 74.398438 C 134.320312 73.757812 134.078125 73.15625 133.746094 72.59375 Z M 136.667969 79.746094 C 136.617188 79.773438 136.566406 79.800781 136.515625 79.832031 C 136.621094 79.773438 136.65625 79.753906 136.667969 79.746094 Z M 116.347656 78.257812 C 116.601562 81.578125 117.378906 91.707031 110.925781 98.214844 C 109.757812 99.28125 108.492188 100.214844 107.125 101.015625 C 105.757812 101.816406 104.324219 102.464844 102.820312 102.960938 C 101.316406 103.457031 99.777344 103.789062 98.203125 103.960938 C 96.628906 104.128906 95.054688 104.132812 93.480469 103.96875 C 86.484375 103.539062 80.28125 100.664062 76.894531 96.277344 C 72.984375 91.214844 73.15625 84.699219 73.257812 80.796875 C 73.421875 75.398438 74.804688 70.339844 77.414062 65.609375 C 79.246094 65.875 81.019531 65.660156 82.734375 64.964844 C 82.902344 64.914062 83.070312 64.875 83.242188 64.851562 C 83.792969 66.023438 84.496094 67.09375 85.351562 68.0625 C 86.207031 69.035156 87.179688 69.867188 88.273438 70.558594 C 89.367188 71.25 90.535156 71.777344 91.777344 72.136719 C 93.023438 72.496094 94.289062 72.671875 95.582031 72.671875 C 96.878906 72.667969 98.144531 72.484375 99.386719 72.121094 C 100.628906 71.757812 101.792969 71.226562 102.886719 70.527344 C 103.976562 69.832031 104.945312 68.996094 105.796875 68.023438 C 106.648438 67.050781 107.347656 65.976562 107.894531 64.804688 C 108.125 64.886719 108.316406 64.917969 108.515625 65 C 109.359375 65.335938 110.234375 65.558594 111.136719 65.667969 C 111.644531 65.746094 112.15625 65.757812 112.667969 65.703125 C 114.757812 69.632812 115.984375 73.820312 116.347656 78.257812 Z M 90.8125 82.65625 C 90.664062 82.40625 90.472656 82.195312 90.242188 82.023438 C 90.011719 81.851562 89.753906 81.726562 89.476562 81.652344 C 89.195312 81.582031 88.914062 81.5625 88.625 81.601562 C 88.339844 81.636719 88.070312 81.726562 87.820312 81.871094 C 87.582031 82.03125 87.335938 82.171875 87.078125 82.292969 C 86.769531 82.40625 86.453125 82.492188 86.128906 82.554688 C 85.84375 82.574219 85.5625 82.574219 85.277344 82.554688 C 84.960938 82.492188 84.648438 82.410156 84.347656 82.300781 C 84.023438 82.152344 83.71875 81.980469 83.433594 81.773438 C 82.902344 81.464844 82.339844 81.390625 81.75 81.554688 C 81.46875 81.632812 81.214844 81.757812 80.984375 81.9375 C 80.757812 82.117188 80.570312 82.332031 80.429688 82.582031 C 80.285156 82.835938 80.195312 83.105469 80.160156 83.394531 C 80.125 83.679688 80.144531 83.964844 80.222656 84.242188 C 80.410156 84.792969 80.742188 85.226562 81.226562 85.546875 C 81.867188 86 82.5625 86.347656 83.308594 86.589844 C 84.058594 86.832031 84.824219 86.957031 85.609375 86.96875 C 86.394531 86.976562 87.164062 86.871094 87.917969 86.644531 C 88.671875 86.421875 89.375 86.089844 90.027344 85.652344 C 90.523438 85.34375 90.859375 84.90625 91.03125 84.347656 C 91.191406 83.753906 91.117188 83.1875 90.8125 82.65625 Z M 111.140625 82.550781 C 110.835938 82.042969 110.402344 81.710938 109.835938 81.546875 C 109.242188 81.386719 108.679688 81.457031 108.152344 81.769531 C 107.863281 81.972656 107.558594 82.148438 107.234375 82.292969 C 106.933594 82.402344 106.621094 82.488281 106.304688 82.546875 C 106.019531 82.566406 105.738281 82.566406 105.453125 82.546875 C 105.128906 82.484375 104.8125 82.398438 104.503906 82.285156 C 104.246094 82.164062 104 82.023438 103.761719 81.863281 C 103.511719 81.722656 103.242188 81.632812 102.957031 81.59375 C 102.667969 81.554688 102.386719 81.574219 102.105469 81.648438 C 101.828125 81.71875 101.574219 81.84375 101.339844 82.015625 C 101.109375 82.191406 100.921875 82.398438 100.773438 82.648438 C 100.46875 83.179688 100.394531 83.742188 100.550781 84.332031 C 100.722656 84.894531 101.058594 85.328125 101.554688 85.640625 C 102.207031 86.078125 102.910156 86.40625 103.664062 86.632812 C 104.417969 86.855469 105.1875 86.964844 105.972656 86.953125 C 106.757812 86.945312 107.523438 86.820312 108.273438 86.578125 C 109.019531 86.335938 109.714844 85.988281 110.355469 85.535156 C 110.839844 85.210938 111.171875 84.777344 111.359375 84.230469 C 111.519531 83.640625 111.449219 83.082031 111.144531 82.550781 Z M 66.488281 73.359375 C 65.578125 73.074219 64.644531 72.929688 63.691406 72.925781 C 63.457031 72.925781 63.222656 72.925781 62.992188 72.945312 C 62.910156 72.945312 62.75 72.976562 62.679688 72.984375 C 62.253906 73.0625 61.835938 73.167969 61.421875 73.292969 L 61.308594 73.328125 L 61.125 73.414062 C 60.917969 73.515625 60.71875 73.628906 60.527344 73.753906 C 60.410156 73.828125 60.085938 74.113281 60.335938 73.878906 C 60.148438 74.050781 59.960938 74.226562 59.785156 74.417969 C 59.769531 74.4375 59.753906 74.453125 59.734375 74.464844 C 59.726562 74.5 59.710938 74.535156 59.6875 74.566406 C 59.664062 74.605469 59.542969 74.820312 59.480469 74.929688 C 59.457031 75.007812 59.335938 75.316406 59.320312 75.378906 C 59.304688 75.441406 59.273438 75.554688 59.253906 75.644531 C 59.253906 75.671875 59.238281 75.769531 59.226562 75.835938 L 59.226562 75.964844 C 59.226562 76.054688 59.226562 76.136719 59.226562 76.234375 C 59.226562 76.277344 59.226562 76.300781 59.226562 76.324219 L 59.238281 76.359375 C 59.238281 76.402344 59.300781 76.597656 59.332031 76.726562 C 59.398438 76.839844 59.457031 76.953125 59.507812 77.074219 C 59.574219 77.148438 59.699219 77.296875 59.742188 77.339844 C 59.789062 77.386719 59.855469 77.433594 59.917969 77.476562 L 59.964844 77.503906 C 60.074219 77.566406 60.183594 77.621094 60.292969 77.679688 C 60.265625 77.679688 60.371094 77.734375 60.441406 77.761719 C 60.5625 77.804688 60.679688 77.847656 60.800781 77.882812 C 61.203125 78.003906 61.613281 78.101562 62.027344 78.171875 C 62.167969 78.195312 62.738281 78.269531 62.308594 78.21875 L 63.074219 78.304688 C 65.15625 78.519531 67.242188 78.730469 69.328125 78.9375 C 69.429688 77.441406 69.625 75.953125 69.90625 74.476562 C 69.855469 74.46875 69.808594 74.457031 69.757812 74.445312 C 68.671875 74.046875 67.59375 73.65625 66.488281 73.359375 Z M 66.488281 73.359375 " fill-opacity="1" fill-rule="nonzero"/></g></svg>